<svg version="1.1" viewBox="0.0 0.0 574.1548556430446 686.9527559055118" fill="none" stroke="none" stroke-linecap="square" stroke-miterlimit="10" xmlns:xlink="http://www.w3.org/1999/xlink" xmlns="http://www.w3.org/2000/svg"><clipPath id="p.0"><path d="m0 0l574.15485 0l0 686.95276l-574.15485 0l0 -686.95276z" clip-rule="nonzero"/></clipPath><g clip-path="url(#p.0)"><path fill="#000000" fill-opacity="0.0" d="m0 0l574.15485 0l0 686.95276l-574.15485 0z" fill-rule="evenodd"/><path fill="#000000" fill-opacity="0.0" d="m0.007874016 392.2546l536.3779 0l0 36.440918l-536.3779 0z" fill-rule="evenodd"/><path stroke="#cccccc" stroke-width="1.0" stroke-linejoin="round" stroke-linecap="butt" d="m0.007874016 392.2546l536.3779 0l0 36.440918l-536.3779 0z" fill-rule="evenodd"/><path fill="#fce5cd" d="m0 0.015748031l536.3779 0l0 391.3701l-536.3779 0z" fill-rule="evenodd"/><path stroke="#b7b7b7" stroke-width="1.0" stroke-linejoin="round" stroke-linecap="butt" d="m0 0.015748031l536.3779 0l0 391.3701l-536.3779 0z" fill-rule="evenodd"/><path fill="#000000" fill-opacity="0.0" d="m588.0945 0l0 391.40158l-51.716553 0l0 -391.40158z" fill-rule="evenodd"/><path fill="#000000" d="m553.4945 81.768364l19.078125 0l0 13.796875l-2.25 0l0 -11.265625l-5.84375 0l0 10.546875l-2.234375 0l0 -10.546875l-6.5 0l0 11.703125l-2.25 0l0 -14.234375zm0 17.420135l13.828125 0l0 2.109375l-1.9375 0q1.015625 0.640625 1.625 1.71875q0.625 1.09375 0.625 2.46875q0 1.53125 -0.640625 2.515625q-0.640625 0.984375 -1.78125 1.390625q2.421875 1.640625 2.421875 4.265625q0 2.0625 -1.140625 3.15625q-1.140625 1.109375 -3.515625 1.109375l-9.484375 0l0 -2.328125l8.703125 0q1.40625 0 2.015625 -0.234375q0.625 -0.21875 1.0 -0.828125q0.390625 -0.59375 0.390625 -1.390625q0 -1.46875 -0.96875 -2.4375q-0.96875 -0.953125 -3.109375 -0.953125l-8.03125 0l0 -2.34375l8.984375 0q1.5625 0 2.34375 -0.578125q0.78125 -0.5625 0.78125 -1.875q0 -0.984375 -0.53125 -1.828125q-0.515625 -0.828125 -1.515625 -1.21875q-1.0 -0.375 -2.890625 -0.375l-7.171875 0l0 -2.34375zm0 24.37674l0 -2.171875l19.078125 0l0 2.34375l-6.796875 0q1.859375 1.484375 1.859375 3.78125q0 1.2812576 -0.515625 2.4062576q-0.515625 1.140625 -1.453125 1.875q-0.921875 0.75 -2.25 1.15625q-1.3125 0.421875 -2.796875 0.421875q-3.5625 0 -5.5 -1.765625q-1.9375 -1.75 -1.9375 -4.2187576q0 -2.4375 2.046875 -3.828125l-1.734375 0zm7.015625 -0.03125q-2.484375 0 -3.59375 0.671875q-1.8125 1.109375 -1.8125 3.0q0 1.5312576 1.328125 2.6562576q1.34375 1.125 3.984375 1.125q2.703125 0 3.984375 -1.078125q1.296875 -1.078125 1.296875 -2.5937576q0 -1.546875 -1.328125 -2.671875q-1.328125 -1.109375 -3.859375 -1.109375zm-2.5625 22.153053l-0.296875 2.421875q-2.125 -0.578125 -3.296875 -2.125q-1.171875 -1.546875 -1.171875 -3.953125q0 -3.03125 1.859375 -4.8125q1.875 -1.78125 5.25 -1.78125q3.484375 0 5.40625 1.796875q1.9375 1.796875 1.9375 4.671875q0 2.765625 -1.890625 4.515625q-1.890625 1.765625 -5.3125 1.765625q-0.203125 0 -0.625 -0.015625l0 -10.3125q-2.28125 0.140625 -3.5 1.296875q-1.203125 1.15625 -1.203125 2.890625q0 1.28125 0.671875 2.1875q0.6875 0.921875 2.171875 1.453125zm3.78125 -7.6875l0 7.71875q1.75 -0.15625 2.625 -0.890625q1.34375 -1.125 1.34375 -2.90625q0 -1.609375 -1.078125 -2.71875q-1.078125 -1.09375 -2.890625 -1.203125zm-8.234375 16.887451l13.828125 -5.25l0 2.46875l-8.28125 2.96875q-1.34375 0.484375 -2.78125 0.890625q1.09375 0.296875 2.625 0.859375l8.4375 3.078125l0 2.40625l-13.828125 -5.234375l0 -2.1875zm4.453125 18.953125l-0.296875 2.421875q-2.125 -0.578125 -3.296875 -2.125q-1.171875 -1.546875 -1.171875 -3.953125q0 -3.03125 1.859375 -4.8125q1.875 -1.78125 5.25 -1.78125q3.484375 0 5.40625 1.796875q1.9375 1.796875 1.9375 4.671875q0 2.765625 -1.890625 4.515625q-1.890625 1.765625 -5.3125 1.765625q-0.203125 0 -0.625 -0.015625l0 -10.3125q-2.28125 0.140625 -3.5 1.296875q-1.203125 1.15625 -1.203125 2.890625q0 1.28125 0.671875 2.1875q0.6875 0.921875 2.171875 1.453125zm3.78125 -7.6875l0 7.71875q1.75 -0.15625 2.625 -0.890625q1.34375 -1.125 1.34375 -2.90625q0 -1.609375 -1.078125 -2.71875q-1.078125 -1.09375 -2.890625 -1.203125zm-8.234375 13.028046l13.828125 0l0 2.109375l-2.09375 0q1.46875 0.796875 1.9375 1.484375q0.46875 0.6875 0.46875 1.5q0 1.1875 -0.765625 2.40625l-2.171875 -0.796875q0.515625 -0.859375 0.515625 -1.71875q0 -0.765625 -0.46875 -1.390625q-0.453125 -0.609375 -1.28125 -0.859375q-1.25 -0.390625 -2.734375 -0.390625l-7.234375 0l0 -2.34375zm0 17.032715l19.078125 0l0 2.53125l-19.078125 0l0 -2.53125zm6.90625 5.812195q3.84375 0 5.6875 2.125q1.546875 1.78125 1.546875 4.34375q0 2.859375 -1.875 4.65625q-1.859375 1.8125 -5.15625 1.8125q-2.671875 0 -4.203125 -0.796875q-1.53125 -0.796875 -2.375 -2.328125q-0.84375 -1.53125 -0.84375 -3.34375q0 -2.890625 1.859375 -4.6875q1.859375 -1.78125 5.359375 -1.78125zm0 2.40625q-2.65625 0 -3.984375 1.15625q-1.3125 1.15625 -1.3125 2.90625q0 1.75 1.328125 2.90625q1.328125 1.15625 4.046875 1.15625q2.5625 0 3.890625 -1.171875q1.328125 -1.15625 1.328125 -2.890625q0 -1.75 -1.328125 -2.90625q-1.3125 -1.15625 -3.96875 -1.15625zm-6.90625 18.434326l16.828125 0l0 -6.28125l2.25 0l0 15.125l-2.25 0l0 -6.3125l-16.828125 0l0 -2.53125zm0 18.003754l19.078125 0l0 2.34375l-19.078125 0l0 -2.34375zm16.390625 5.98468l2.6875 0l0 2.34375l-2.6875 0l0 -2.34375zm-16.390625 0l13.828125 0l0 2.34375l-13.828125 0l0 -2.34375zm0 8.0784l0 -2.171875l19.078125 0l0 2.34375l-6.796875 0q1.859375 1.484375 1.859375 3.78125q0 1.28125 -0.515625 2.40625q-0.515625 1.140625 -1.453125 1.875q-0.921875 0.75 -2.25 1.15625q-1.3125 0.421875 -2.796875 0.421875q-3.5625 0 -5.5 -1.765625q-1.9375 -1.75 -1.9375 -4.21875q0 -2.4375 2.046875 -3.828125l-1.734375 0zm7.015625 -0.03125q-2.484375 0 -3.59375 0.671875q-1.8125 1.109375 -1.8125 3.0q0 1.53125 1.328125 2.65625q1.34375 1.125 3.984375 1.125q2.703125 0 3.984375 -1.078125q1.296875 -1.078125 1.296875 -2.59375q0 -1.546875 -1.328125 -2.671875q-1.328125 -1.109375 -3.859375 -1.109375zm-7.015625 12.668701l13.828125 0l0 2.109375l-2.09375 0q1.46875 0.796875 1.9375 1.484375q0.46875 0.6875 0.46875 1.5q0 1.1875 -0.765625 2.40625l-2.171875 -0.796875q0.515625 -0.859375 0.515625 -1.71875q0 -0.765625 -0.46875 -1.390625q-0.453125 -0.609375 -1.28125 -0.859375q-1.25 -0.390625 -2.734375 -0.390625l-7.234375 0l0 -2.34375zm1.703125 17.923615q-1.109375 -1.3125 -1.5625 -2.515625q-0.453125 -1.203125 -0.453125 -2.578125q0 -2.28125 1.109375 -3.5q1.109375 -1.21875 2.84375 -1.21875q1.015625 0 1.859375 0.453125q0.84375 0.46875 1.34375 1.21875q0.515625 0.75 0.765625 1.6875q0.1875 0.6875 0.359375 2.078125q0.328125 2.828125 0.796875 4.171875q0.484375 0.015625 0.625 0.015625q1.421875 0 2.015625 -0.65625q0.796875 -0.90625 0.796875 -2.671875q0 -1.65625 -0.59375 -2.453125q-0.578125 -0.78125 -2.046875 -1.15625l0.3125 -2.296875q1.46875 0.3125 2.375 1.03125q0.90625 0.71875 1.390625 2.0625q0.5 1.359375 0.5 3.140625q0 1.78125 -0.421875 2.875q-0.421875 1.109375 -1.046875 1.625q-0.625 0.53125 -1.59375 0.734375q-0.59375 0.125 -2.15625 0.125l-3.125 0q-3.265625 0 -4.140625 0.140625q-0.859375 0.15625 -1.65625 0.59375l0 -2.4375q0.734375 -0.375 1.703125 -0.46875zm5.234375 -0.203125q-0.515625 -1.265625 -0.890625 -3.828125q-0.203125 -1.4375 -0.46875 -2.046875q-0.25 -0.59375 -0.75 -0.921875q-0.5 -0.3125 -1.125 -0.3125q-0.9375 0 -1.5625 0.703125q-0.625 0.703125 -0.625 2.078125q0 1.34375 0.59375 2.390625q0.59375 1.0625 1.625 1.5625q0.796875 0.375 2.34375 0.375l0.859375 0zm-6.9375 5.9811707l13.828125 0l0 2.109375l-2.09375 0q1.46875 0.796875 1.9375 1.484375q0.46875 0.6875 0.46875 1.5q0 1.1875 -0.765625 2.40625l-2.171875 -0.796875q0.515625 -0.859375 0.515625 -1.71875q0 -0.765625 -0.46875 -1.390625q-0.453125 -0.609375 -1.28125 -0.859375q-1.25 -0.390625 -2.734375 -0.390625l-7.234375 0l0 -2.34375zm-5.328125 8.7986145l2.203125 -0.265625q-0.203125 0.765625 -0.203125 1.34375q0 0.78125 0.265625 1.25q0.25 0.46875 0.71875 0.765625q0.359375 0.21875 1.75 0.71875q0.1875 0.0625 0.5625 0.203125l13.859375 -5.25l0 2.53125l-8.015625 2.875q-1.515625 0.5625 -3.203125 1.0q1.625 0.40625 3.15625 0.96875l8.0625 2.953125l0 2.34375l-14.0625 -5.265625q-2.28125 -0.84375 -3.140625 -1.3125q-1.15625 -0.625 -1.6875 -1.4375q-0.546875 -0.796875 -0.546875 -1.921875q0 -0.671875 0.28125 -1.5z" fill-rule="nonzero"/><path fill="#cfe2f3" d="m0 428.67978l536.3779 0l0 257.98428l-536.3779 0z" fill-rule="evenodd"/><path stroke="#b7b7b7" stroke-width="1.0" stroke-linejoin="round" stroke-linecap="butt" d="m0 428.67978l536.3779 0l0 257.98428l-536.3779 0z" fill-rule="evenodd"/><path fill="#000000" fill-opacity="0.0" d="m588.0945 428.67978l0 257.98428l-51.716553 0l0 -257.98428z" fill-rule="evenodd"/><path fill="#000000" d="m553.4945 449.3817l19.078125 0l0 13.796875l-2.25 0l0 -11.265625l-5.84375 0l0 10.546875l-2.234375 0l0 -10.546875l-6.5 0l0 11.703125l-2.25 0l0 -14.234375zm0 15.8576355l7.1875 5.0625l6.640625 -4.671875l0 2.921875l-3.25 2.125q-0.921875 0.59375 -1.546875 0.96875q0.859375 0.5625 1.53125 1.046875l3.265625 2.328125l0 2.796875l-6.515625 -4.78125l-7.3125 5.15625l0 -2.890625l4.296875 -2.828125l1.15625 -0.75l-5.453125 -3.640625l0 -2.84375zm2.09375 20.015625l-2.0625 0.328125q-0.21875 -0.984375 -0.21875 -1.765625q0 -1.265625 0.40625 -1.96875q0.40625 -0.703125 1.0625 -1.0q0.65625 -0.28125 2.765625 -0.28125l7.953125 0l0 -1.71875l1.828125 0l0 1.71875l3.421875 0l1.40625 2.328125l-4.828125 0l0 2.359375l-1.828125 0l0 -2.359375l-8.078125 0q-1.0 0 -1.296875 0.125q-0.28125 0.125 -0.453125 0.40625q-0.171875 0.28125 -0.171875 0.796875q0 0.390625 0.09375 1.03125zm2.359375 11.749725l-0.296875 2.421875q-2.125 -0.578125 -3.296875 -2.125q-1.171875 -1.546875 -1.171875 -3.953125q0 -3.03125 1.859375 -4.8125q1.875 -1.78125 5.25 -1.78125q3.484375 0 5.40625 1.796875q1.9375 1.796875 1.9375 4.671875q0 2.765625 -1.890625 4.515625q-1.890625 1.765625 -5.3125 1.765625q-0.203125 0 -0.625 -0.015625l0 -10.3125q-2.28125 0.140625 -3.5 1.296875q-1.203125 1.15625 -1.203125 2.890625q0 1.28125 0.671875 2.1875q0.6875 0.921875 2.171875 1.453125zm3.78125 -7.6875l0 7.71875q1.75 -0.15625 2.625 -0.890625q1.34375 -1.125 1.34375 -2.90625q0 -1.609375 -1.078125 -2.71875q-1.078125 -1.09375 -2.890625 -1.203125zm-8.234375 13.028046l13.828125 0l0 2.109375l-2.09375 0q1.46875 0.796875 1.9375 1.484375q0.46875 0.6875 0.46875 1.5q0 1.1875 -0.765625 2.40625l-2.171875 -0.796875q0.515625 -0.859375 0.515625 -1.71875q0 -0.765625 -0.46875 -1.390625q-0.453125 -0.609375 -1.28125 -0.859375q-1.25 -0.390625 -2.734375 -0.390625l-7.234375 0l0 -2.34375zm0 8.8923645l13.828125 0l0 2.109375l-1.96875 0q2.28125 1.53125 2.28125 4.40625q0 1.25 -0.453125 2.296875q-0.453125 1.046875 -1.1875 1.5625q-0.71875 0.53125 -1.71875 0.734375q-0.65625 0.125 -2.28125 0.125l-8.5 0l0 -2.34375l8.40625 0q1.4375 0 2.140625 -0.28125q0.71875 -0.265625 1.140625 -0.96875q0.421875 -0.6875 0.421875 -1.625q0 -1.484375 -0.953125 -2.578125q-0.953125 -1.09375 -3.609375 -1.09375l-7.546875 0l0 -2.34375zm1.703125 23.856201q-1.109375 -1.3125 -1.5625 -2.515625q-0.453125 -1.203125 -0.453125 -2.578125q0 -2.28125 1.109375 -3.5q1.109375 -1.21875 2.84375 -1.21875q1.015625 0 1.859375 0.453125q0.84375 0.46875 1.34375 1.21875q0.515625 0.75 0.765625 1.6875q0.1875 0.6875 0.359375 2.078125q0.328125 2.828125 0.796875 4.171875q0.484375 0.015625 0.625 0.015625q1.421875 0 2.015625 -0.65625q0.796875 -0.90625 0.796875 -2.671875q0 -1.65625 -0.59375 -2.453125q-0.578125 -0.78125 -2.046875 -1.15625l0.3125 -2.296875q1.46875 0.3125 2.375 1.03125q0.90625 0.71875 1.390625 2.0625q0.5 1.359375 0.5 3.140625q0 1.78125 -0.421875 2.875q-0.421875 1.109375 -1.046875 1.625q-0.625 0.53125 -1.59375 0.734375q-0.59375 0.125 -2.15625 0.125l-3.125 0q-3.265625 0 -4.140625 0.140625q-0.859375 0.15625 -1.65625 0.59375l0 -2.4375q0.734375 -0.375 1.703125 -0.46875zm5.234375 -0.203125q-0.515625 -1.265625 -0.890625 -3.828125q-0.203125 -1.4375 -0.46875 -2.046875q-0.25 -0.59375 -0.75 -0.921875q-0.5 -0.3125 -1.125 -0.3125q-0.9375 0 -1.5625 0.703125q-0.625 0.703125 -0.625 2.078125q0 1.34375 0.59375 2.390625q0.59375 1.0625 1.625 1.5625q0.796875 0.375 2.34375 0.375l0.859375 0zm-6.9375 5.949951l19.078125 0l0 2.34375l-19.078125 0l0 -2.34375zm5.0625 22.40625l-0.296875 2.296875q-2.390625 -0.375 -3.734375 -1.9375q-1.34375 -1.546875 -1.34375 -3.8125q0 -2.84375 1.84375 -4.5625q1.859375 -1.71875 5.328125 -1.71875q2.234375 0 3.90625 0.734375q1.6875 0.75 2.53125 2.265625q0.84375 1.515625 0.84375 3.296875q0 2.25 -1.140625 3.671875q-1.140625 1.4375 -3.234375 1.84375l-0.359375 -2.28125q1.390625 -0.328125 2.09375 -1.15625q0.703125 -0.8125 0.703125 -1.984375q0 -1.78125 -1.265625 -2.890625q-1.265625 -1.09375 -4.015625 -1.09375q-2.78125 0 -4.046875 1.0625q-1.265625 1.0625 -1.265625 2.78125q0 1.390625 0.84375 2.3125q0.859375 0.921875 2.609375 1.171875zm1.84375 3.4375q3.84375 0 5.6875 2.125q1.546875 1.78125 1.546875 4.34375q0 2.859375 -1.875 4.65625q-1.859375 1.8125 -5.15625 1.8125q-2.671875 0 -4.203125 -0.796875q-1.53125 -0.796875 -2.375 -2.328125q-0.84375 -1.53125 -0.84375 -3.34375q0 -2.890625 1.859375 -4.6875q1.859375 -1.78125 5.359375 -1.78125zm0 2.40625q-2.65625 0 -3.984375 1.15625q-1.3125 1.15625 -1.3125 2.90625q0 1.75 1.328125 2.90625q1.328125 1.15625 4.046875 1.15625q2.5625 0 3.890625 -1.171875q1.328125 -1.15625 1.328125 -2.890625q0 -1.75 -1.328125 -2.90625q-1.3125 -1.15625 -3.96875 -1.15625zm-6.90625 22.246765l1.75 0q-2.0625 -1.3125 -2.0625 -3.859375q0 -1.65625 0.90625 -3.046875q0.921875 -1.375 2.546875 -2.140625q1.640625 -0.765625 3.75 -0.765625q2.078125 0 3.765625 0.6875q1.6875 0.703125 2.578125 2.078125q0.90625 1.375 0.90625 3.078125q0 1.25 -0.53125 2.21875q-0.53125 0.984375 -1.375 1.59375l6.84375 0l0 2.34375l-19.078125 0l0 -2.1875zm6.890625 -7.40625q-2.640625 0 -3.96875 1.125q-1.3125 1.125 -1.3125 2.640625q0 1.53125 1.25 2.609375q1.265625 1.078125 3.84375 1.078125q2.84375 0 4.171875 -1.09375q1.328125 -1.09375 1.328125 -2.703125q0 -1.546875 -1.28125 -2.609375q-1.28125 -1.046875 -4.03125 -1.046875zm-2.4375 22.731201l-0.296875 2.421875q-2.125 -0.578125 -3.296875 -2.125q-1.171875 -1.546875 -1.171875 -3.953125q0 -3.03125 1.859375 -4.8125q1.875 -1.78125 5.25 -1.78125q3.484375 0 5.40625 1.796875q1.9375 1.796875 1.9375 4.671875q0 2.765625 -1.890625 4.515625q-1.890625 1.765625 -5.3125 1.765625q-0.203125 0 -0.625 -0.015625l0 -10.3125q-2.28125 0.140625 -3.5 1.296875q-1.203125 1.15625 -1.203125 2.890625q0 1.28125 0.671875 2.1875q0.6875 0.921875 2.171875 1.453125zm3.78125 -7.6875l0 7.71875q1.75 -0.15625 2.625 -0.890625q1.34375 -1.125 1.34375 -2.90625q0 -1.609375 -1.078125 -2.71875q-1.078125 -1.09375 -2.890625 -1.203125zm-8.234375 15.215576l0 -2.171875l19.078125 0l0 2.34375l-6.796875 0q1.859375 1.484375 1.859375 3.78125q0 1.28125 -0.515625 2.40625q-0.515625 1.140625 -1.453125 1.875q-0.921875 0.75 -2.25 1.15625q-1.3125 0.421875 -2.796875 0.421875q-3.5625 0 -5.5 -1.765625q-1.9375 -1.75 -1.9375 -4.21875q0 -2.4375 2.046875 -3.828125l-1.734375 0zm7.015625 -0.03125q-2.484375 0 -3.59375 0.671875q-1.8125 1.109375 -1.8125 3.0q0 1.53125 1.328125 2.65625q1.34375 1.125 3.984375 1.125q2.703125 0 3.984375 -1.078125q1.296875 -1.078125 1.296875 -2.59375q0 -1.546875 -1.328125 -2.671875q-1.328125 -1.109375 -3.859375 -1.109375zm-5.3125 21.715576q-1.109375 -1.3125 -1.5625 -2.515625q-0.453125 -1.203125 -0.453125 -2.578125q0 -2.28125 1.109375 -3.5q1.109375 -1.21875 2.84375 -1.21875q1.015625 0 1.859375 0.453125q0.84375 0.46875 1.34375 1.21875q0.515625 0.75 0.765625 1.6875q0.1875 0.6875 0.359375 2.078125q0.328125 2.828125 0.796875 4.171875q0.484375 0.015625 0.625 0.015625q1.421875 0 2.015625 -0.65625q0.796875 -0.90625 0.796875 -2.671875q0 -1.65625 -0.59375 -2.453125q-0.578125 -0.78125 -2.046875 -1.15625l0.3125 -2.296875q1.46875 0.3125 2.375 1.03125q0.90625 0.71875 1.390625 2.0625q0.5 1.359375 0.5 3.140625q0 1.78125 -0.421875 2.875q-0.421875 1.109375 -1.046875 1.625q-0.625 0.53125 -1.59375 0.734375q-0.59375 0.125 -2.15625 0.125l-3.125 0q-3.265625 0 -4.140625 0.140625q-0.859375 0.15625 -1.65625 0.59375l0 -2.4375q0.734375 -0.375 1.703125 -0.46875zm5.234375 -0.203125q-0.515625 -1.265625 -0.890625 -3.828125q-0.203125 -1.4375 -0.46875 -2.046875q-0.25 -0.59375 -0.75 -0.921875q-0.5 -0.3125 -1.125 -0.3125q-0.9375 0 -1.5625 0.703125q-0.625 0.703125 -0.625 2.078125q0 1.34375 0.59375 2.390625q0.59375 1.0625 1.625 1.5625q0.796875 0.375 2.34375 0.375l0.859375 0zm-2.8125 5.059265l0.359375 2.328125q-1.390625 0.1875 -2.140625 1.078125q-0.734375 0.890625 -0.734375 2.5q0 1.609375 0.65625 2.390625q0.65625 0.78125 1.546875 0.78125q0.796875 0 1.25 -0.6875q0.3125 -0.484375 0.796875 -2.390625q0.65625 -2.578125 1.125 -3.578125q0.46875 -1.0 1.3125 -1.515625q0.84375 -0.515625 1.859375 -0.515625q0.921875 0 1.703125 0.421875q0.796875 0.4375 1.3125 1.15625q0.40625 0.546875 0.6875 1.484375q0.28125 0.953125 0.28125 2.03125q0 1.625 -0.46875 2.859375q-0.46875 1.234375 -1.28125 1.8125q-0.796875 0.59375 -2.140625 0.8125l-0.3125 -2.296875q1.078125 -0.15625 1.671875 -0.90625q0.59375 -0.75 0.59375 -2.109375q0 -1.609375 -0.53125 -2.3125q-0.53125 -0.6875 -1.25 -0.6875q-0.453125 0 -0.8125 0.296875q-0.375 0.28125 -0.625 0.890625q-0.140625 0.359375 -0.609375 2.078125q-0.65625 2.484375 -1.078125 3.46875q-0.421875 0.984375 -1.234375 1.53125q-0.796875 0.5625 -2.0 0.5625q-1.171875 0 -2.21875 -0.6875q-1.03125 -0.671875 -1.59375 -1.96875q-0.5625 -1.28125 -0.5625 -2.90625q0 -2.703125 1.109375 -4.125q1.125 -1.40625 3.328125 -1.796875zm0.328125 23.734375l-0.296875 2.421875q-2.125 -0.578125 -3.296875 -2.125q-1.171875 -1.546875 -1.171875 -3.953125q0 -3.03125 1.859375 -4.8125q1.875 -1.78125 5.25 -1.78125q3.484375 0 5.40625 1.796875q1.9375 1.796875 1.9375 4.671875q0 2.765625 -1.890625 4.515625q-1.890625 1.765625 -5.3125 1.765625q-0.203125 0 -0.625 -0.015625l0 -10.3125q-2.28125 0.140625 -3.5 1.296875q-1.203125 1.15625 -1.203125 2.890625q0 1.28125 0.671875 2.1875q0.6875 0.921875 2.171875 1.453125zm3.78125 -7.6875l0 7.71875q1.75 -0.15625 2.625 -0.890625q1.34375 -1.125 1.34375 -2.90625q0 -1.609375 -1.078125 -2.71875q-1.078125 -1.09375 -2.890625 -1.203125z" fill-rule="nonzero"/><path fill="#9fc5e8" d="m48.559055 529.1788l0 0c0 -7.868408 6.378601 -14.247009 14.247005 -14.247009l178.24615 0c3.778534 0 7.402313 1.5010376 10.074142 4.1728516c2.6718292 2.671814 4.1728516 6.2955933 4.1728516 10.074158l0 56.986267c0 7.868408 -6.378601 14.247009 -14.246994 14.247009l-178.24615 0c-7.8684044 0 -14.247005 -6.378601 -14.247005 -14.247009z" fill-rule="evenodd"/><path stroke="#1155cc" stroke-width="1.0" stroke-linejoin="round" stroke-linecap="butt" d="m48.559055 529.1788l0 0c0 -7.868408 6.378601 -14.247009 14.247005 -14.247009l178.24615 0c3.778534 0 7.402313 1.5010376 10.074142 4.1728516c2.6718292 2.671814 4.1728516 6.2955933 4.1728516 10.074158l0 56.986267c0 7.868408 -6.378601 14.247009 -14.246994 14.247009l-178.24615 0c-7.8684044 0 -14.247005 -6.378601 -14.247005 -14.247009z" fill-rule="evenodd"/><path fill="#000000" d="m84.79806 553.5919l0 -13.359375l2.6875 0l0 13.359375l-2.6875 0zm14.042679 0l-2.5625 0l0 -4.9375q0 -1.5625 -0.171875 -2.015625q-0.15625 -0.46875 -0.53125 -0.71875q-0.359375 -0.265625 -0.875 -0.265625q-0.671875 0 -1.203125 0.375q-0.53125 0.359375 -0.734375 0.96875q-0.1875 0.59375 -0.1875 2.21875l0 4.375l-2.546875 0l0 -9.671875l2.375 0l0 1.421875q1.265625 -1.640625 3.1875 -1.640625q0.84375 0 1.546875 0.3125q0.703125 0.296875 1.0625 0.78125q0.359375 0.46875 0.5 1.078125q0.140625 0.59375 0.140625 1.703125l0 6.015625zm7.036606 -9.671875l0 2.03125l-1.75 0l0 3.90625q0 1.1875 0.046875 1.390625q0.046875 0.1875 0.21875 0.3125q0.1875 0.125 0.4375 0.125q0.359375 0 1.03125 -0.25l0.21875 2.0q-0.890625 0.375 -2.015625 0.375q-0.703125 0 -1.265625 -0.234375q-0.546875 -0.234375 -0.8125 -0.59375q-0.25 -0.375 -0.34375 -1.0q-0.09375 -0.453125 -0.09375 -1.8125l0 -4.21875l-1.171875 0l0 -2.03125l1.171875 0l0 -1.921875l2.578125 -1.5l0 3.421875l1.75 0zm7.368927 6.59375l2.546875 0.421875q-0.484375 1.40625 -1.546875 2.140625q-1.0625 0.734375 -2.65625 0.734375q-2.515625 0 -3.734375 -1.65625q-0.953125 -1.3125 -0.953125 -3.328125q0 -2.40625 1.25 -3.765625q1.265625 -1.359375 3.1875 -1.359375q2.15625 0 3.40625 1.421875q1.25 1.421875 1.1875 4.375l-6.40625 0q0.03125 1.140625 0.609375 1.78125q0.59375 0.625 1.484375 0.625q0.59375 0 1.0 -0.328125q0.421875 -0.328125 0.625 -1.0625zm0.15625 -2.59375q-0.03125 -1.109375 -0.578125 -1.6875q-0.546875 -0.578125 -1.328125 -0.578125q-0.84375 0 -1.390625 0.609375q-0.546875 0.609375 -0.53125 1.65625l3.828125 0zm7.078842 5.671875l-2.5625 0l0 -9.671875l2.375 0l0 1.375q0.609375 -0.984375 1.09375 -1.28125q0.484375 -0.3125 1.109375 -0.3125q0.875 0 1.6875 0.484375l-0.796875 2.234375q-0.640625 -0.421875 -1.203125 -0.421875q-0.53125 0 -0.90625 0.296875q-0.375 0.296875 -0.59375 1.078125q-0.203125 0.765625 -0.203125 3.234375l0 2.984375zm4.510269 -3.5625l0 -2.5625l5.0312576 0l0 2.5625l-5.0312576 0zm6.4470596 3.5625l0 -13.359375l2.6875 0l0 13.359375l-2.6875 0zm14.042679 0l-2.5625 0l0 -4.9375q0 -1.5625 -0.171875 -2.015625q-0.15625 -0.46875 -0.53125 -0.71875q-0.359375 -0.265625 -0.875 -0.265625q-0.671875 0 -1.203125 0.375q-0.53125 0.359375 -0.734375 0.96875q-0.1875 0.59375 -0.1875 2.21875l0 4.375l-2.546875 0l0 -9.671875l2.375 0l0 1.421875q1.265625 -1.640625 3.1875 -1.640625q0.84375 0 1.546875 0.3125q0.703125 0.296875 1.0625 0.78125q0.359375 0.46875 0.5 1.078125q0.140625 0.59375 0.140625 1.703125l0 6.015625zm7.036606 -9.671875l0 2.03125l-1.75 0l0 3.90625q0 1.1875 0.046875 1.390625q0.046875 0.1875 0.21875 0.3125q0.1875 0.125 0.4375 0.125q0.359375 0 1.03125 -0.25l0.21875 2.0q-0.890625 0.375 -2.015625 0.375q-0.703125 0 -1.265625 -0.234375q-0.546875 -0.234375 -0.8125 -0.59375q-0.25 -0.375 -0.34375 -1.0q-0.09375 -0.453125 -0.09375 -1.8125l0 -4.21875l-1.171875 0l0 -2.03125l1.171875 0l0 -1.921875l2.578125 -1.5l0 3.421875l1.75 0zm7.368927 6.59375l2.546875 0.421875q-0.484375 1.40625 -1.546875 2.140625q-1.0625 0.734375 -2.65625 0.734375q-2.515625 0 -3.734375 -1.65625q-0.953125 -1.3125 -0.953125 -3.328125q0 -2.40625 1.25 -3.765625q1.265625 -1.359375 3.1875 -1.359375q2.15625 0 3.40625 1.421875q1.25 1.421875 1.1875 4.375l-6.40625 0q0.03125 1.140625 0.609375 1.78125q0.59375 0.625 1.484375 0.625q0.59375 0 1.0 -0.328125q0.421875 -0.328125 0.625 -1.0625zm0.15625 -2.59375q-0.03125 -1.109375 -0.578125 -1.6875q-0.546875 -0.578125 -1.328125 -0.578125q-0.84375 0 -1.390625 0.609375q-0.546875 0.609375 -0.53125 1.65625l3.828125 0zm4.391342 6.3125l2.921875 0.359375q0.0625 0.5 0.328125 0.6875q0.375 0.28125 1.15625 0.28125q1.0 0 1.5 -0.296875q0.328125 -0.203125 0.515625 -0.65625q0.109375 -0.3125 0.109375 -1.171875l0 -1.40625q-1.140625 1.5625 -2.890625 1.5625q-1.953125 0 -3.09375 -1.65625q-0.890625 -1.296875 -0.890625 -3.234375q0 -2.4375 1.171875 -3.71875q1.171875 -1.28125 2.90625 -1.28125q1.796875 0 2.96875 1.578125l0 -1.359375l2.390625 0l0 8.671875q0 1.71875 -0.28125 2.5625q-0.28125 0.84375 -0.796875 1.328125q-0.5 0.484375 -1.359375 0.75q-0.84375 0.28125 -2.15625 0.28125q-2.453125 0 -3.484375 -0.84375q-1.03125 -0.84375 -1.03125 -2.125q0 -0.140625 0.015625 -0.3125zm2.28125 -5.671875q0 1.53125 0.59375 2.25q0.59375 0.71875 1.46875 0.71875q0.9375 0 1.578125 -0.734375q0.65625 -0.734375 0.65625 -2.171875q0 -1.515625 -0.625 -2.234375q-0.609375 -0.734375 -1.5625 -0.734375q-0.921875 0 -1.515625 0.71875q-0.59375 0.71875 -0.59375 2.1875zm11.802231 5.03125l-2.5625 0l0 -9.671875l2.375 0l0 1.375q0.609375 -0.984375 1.09375 -1.28125q0.484375 -0.3125 1.109375 -0.3125q0.87498474 0 1.6874847 0.484375l-0.796875 2.234375q-0.640625 -0.421875 -1.2031097 -0.421875q-0.53125 0 -0.90625 0.296875q-0.375 0.296875 -0.59375 1.078125q-0.203125 0.765625 -0.203125 3.234375l0 2.984375zm6.713394 -6.71875l-2.328125 -0.421875q0.40625 -1.40625 1.359375 -2.078125q0.953125 -0.671875 2.84375 -0.671875q1.703125 0 2.546875 0.40625q0.84375 0.40625 1.171875 1.03125q0.34375 0.625 0.34375 2.28125l-0.015625 3.0q0 1.265625 0.109375 1.875q0.125 0.609375 0.46875 1.296875l-2.53125 0q-0.109375 -0.25 -0.25 -0.75q-0.0625 -0.234375 -0.09375 -0.3125q-0.65625 0.640625 -1.40625 0.96875q-0.734375 0.3125 -1.59375 0.3125q-1.484375 0 -2.34375 -0.8125q-0.859375 -0.8125 -0.859375 -2.046875q0 -0.828125 0.390625 -1.46875q0.390625 -0.640625 1.09375 -0.96875q0.703125 -0.34375 2.03125 -0.609375q1.796875 -0.328125 2.484375 -0.625l0 -0.25q0 -0.75 -0.359375 -1.0625q-0.359375 -0.3125 -1.375 -0.3125q-0.6875 0 -1.078125 0.28125q-0.375 0.265625 -0.609375 0.9375zm3.421875 2.078125q-0.484375 0.15625 -1.5625 0.390625q-1.0625 0.21875 -1.390625 0.4375q-0.5 0.359375 -0.5 0.90625q0 0.53125 0.40625 0.9375q0.40625 0.390625 1.015625 0.390625q0.703125 0 1.328125 -0.46875q0.46875 -0.34375 0.609375 -0.84375q0.09375 -0.328125 0.09375 -1.25l0 -0.5zm9.485077 -5.03125l0 2.03125l-1.75 0l0 3.90625q0 1.1875 0.046875 1.390625q0.046875 0.1875 0.21875 0.3125q0.1875 0.125 0.4375 0.125q0.359375 0 1.03125 -0.25l0.21875 2.0q-0.890625 0.375 -2.015625 0.375q-0.703125 0 -1.265625 -0.234375q-0.546875 -0.234375 -0.8125 -0.59375q-0.25 -0.375 -0.34375 -1.0q-0.09375 -0.453125 -0.09375 -1.8125l0 -4.21875l-1.171875 0l0 -2.03125l1.171875 0l0 -1.921875l2.578125 -1.5l0 3.421875l1.75 0zm7.368927 6.59375l2.546875 0.421875q-0.484375 1.40625 -1.546875 2.140625q-1.0625 0.734375 -2.65625 0.734375q-2.515625 0 -3.734375 -1.65625q-0.953125 -1.3125 -0.953125 -3.328125q0 -2.40625 1.25 -3.765625q1.265625 -1.359375 3.1875 -1.359375q2.15625 0 3.40625 1.421875q1.25 1.421875 1.1875 4.375l-6.40625 0q0.03125 1.140625 0.609375 1.78125q0.59375 0.625 1.484375 0.625q0.59375 0 1.0 -0.328125q0.421875 -0.328125 0.625 -1.0625zm0.15625 -2.59375q-0.03125 -1.109375 -0.578125 -1.6875q-0.546875 -0.578125 -1.328125 -0.578125q-0.84375 0 -1.390625 0.609375q-0.546875 0.609375 -0.53125 1.65625l3.828125 0zm13.500732 5.671875l-2.390625 0l0 -1.421875q-0.59375 0.828125 -1.40625 1.234375q-0.796875 0.40625 -1.609375 0.40625q-1.671875 0 -2.859375 -1.34375q-1.1875 -1.34375 -1.1875 -3.75q0 -2.453125 1.15625 -3.734375q1.15625 -1.28125 2.921875 -1.28125q1.625 0 2.8125 1.34375l0 -4.8125l2.5625 0l0 13.359375zm-6.84375 -5.046875q0 1.546875 0.4375 2.234375q0.609375 1.015625 1.71875 1.015625q0.890625 0 1.5 -0.75q0.625 -0.765625 0.625 -2.25q0 -1.671875 -0.609375 -2.40625q-0.59375 -0.734375 -1.53125 -0.734375q-0.90625 0 -1.53125 0.734375q-0.609375 0.71875 -0.609375 2.15625z" fill-rule="nonzero"/><path fill="#000000" d="m102.73752 570.68567l2.609375 0.828125q-0.59375 2.1875 -2.0 3.25q-1.390625 1.0625 -3.546875 1.0625q-2.65625 0 -4.375 -1.8125q-1.703125 -1.828125 -1.703125 -4.984375q0 -3.328125 1.71875 -5.171875q1.71875 -1.84375 4.515625 -1.84375q2.453125 0 3.984375 1.4375q0.921875 0.859375 1.375 2.46875l-2.671875 0.640625q-0.234375 -1.046875 -0.984375 -1.640625q-0.75 -0.609375 -1.828125 -0.609375q-1.484375 0 -2.421875 1.078125q-0.921875 1.0625 -0.921875 3.4375q0 2.53125 0.90625 3.609375q0.921875 1.078125 2.375 1.078125q1.078125 0 1.84375 -0.671875q0.78125 -0.6875 1.125 -2.15625zm4.910446 -6.078125l0 -2.375l2.5625 0l0 2.375l-2.5625 0zm0 10.984375l0 -9.671875l2.5625 0l0 9.671875l-2.5625 0zm7.636429 0l-2.5625 0l0 -9.671875l2.375 0l0 1.375q0.609375 -0.984375 1.09375 -1.28125q0.484375 -0.3125 1.109375 -0.3125q0.875 0 1.6875 0.484375l-0.796875 2.234375q-0.640625 -0.421875 -1.203125 -0.421875q-0.53125 0 -0.90625 0.296875q-0.375 0.296875 -0.59375 1.078125q-0.203125 0.765625 -0.203125 3.234375l0 2.984375zm13.244644 -6.8125l-2.53125 0.453125q-0.125 -0.75 -0.578125 -1.125q-0.453125 -0.390625 -1.171875 -0.390625q-0.953125 0 -1.53125 0.65625q-0.5625 0.65625 -0.5625 2.203125q0 1.734375 0.578125 2.4375q0.578125 0.703125 1.546875 0.703125q0.734375 0 1.203125 -0.40625q0.46875 -0.421875 0.65625 -1.421875l2.515625 0.421875q-0.390625 1.734375 -1.515625 2.625q-1.109375 0.875 -2.96875 0.875q-2.125 0 -3.390625 -1.328125q-1.25 -1.34375 -1.25 -3.71875q0 -2.390625 1.265625 -3.71875q1.265625 -1.34375 3.421875 -1.34375q1.765625 0 2.796875 0.765625q1.046875 0.75 1.515625 2.3125zm8.297592 6.8125l0 -1.453125q-0.53125 0.78125 -1.390625 1.234375q-0.859375 0.4375 -1.8125 0.4375q-0.96875 0 -1.75 -0.421875q-0.765625 -0.4375 -1.125 -1.203125q-0.34375 -0.78125 -0.34375 -2.140625l0 -6.125l2.5625 0l0 4.4375q0 2.046875 0.140625 2.515625q0.140625 0.453125 0.515625 0.71875q0.375 0.265625 0.953125 0.265625q0.65625 0 1.171875 -0.359375q0.515625 -0.359375 0.703125 -0.890625q0.203125 -0.53125 0.203125 -2.609375l0 -4.078125l2.546875 0l0 9.671875l-2.375 0zm5.036606 -10.984375l0 -2.375l2.5625 0l0 2.375l-2.5625 0zm0 10.984375l0 -9.671875l2.5625 0l0 9.671875l-2.5625 0zm9.620804 -9.671875l0 2.03125l-1.75 0l0 3.90625q0 1.1875 0.046875 1.390625q0.046875 0.1875 0.21875 0.3125q0.1875 0.125 0.4375 0.125q0.359375 0 1.03125 -0.25l0.21875 2.0q-0.890625 0.375 -2.015625 0.375q-0.703125 0 -1.265625 -0.234375q-0.546875 -0.234375 -0.8125 -0.59375q-0.25 -0.375 -0.34375 -1.0q-0.09375 -0.453125 -0.09375 -1.8125l0 -4.21875l-1.171875 0l0 -2.03125l1.171875 0l0 -1.921875l2.578125 -1.5l0 3.421875l1.75 0zm6.958481 -3.6875l4.9375 0q1.65625 0 2.53125 0.265625q1.1875 0.34375 2.015625 1.234375q0.84375 0.875 1.28125 2.15625q0.4375 1.28125 0.4375 3.15625q0 1.640625 -0.40625 2.84375q-0.5 1.453125 -1.4375 2.359375q-0.703125 0.671875 -1.890625 1.0625q-0.890625 0.28125 -2.390625 0.28125l-5.078125 0l0 -13.359375zm2.703125 2.265625l0 8.84375l2.015625 0q1.125 0 1.625 -0.125q0.65625 -0.171875 1.078125 -0.5625q0.4375 -0.390625 0.703125 -1.28125q0.28125 -0.90625 0.28125 -2.453125q0 -1.546875 -0.28125 -2.375q-0.265625 -0.828125 -0.765625 -1.28125q-0.484375 -0.46875 -1.234375 -0.640625q-0.5625 -0.125 -2.21875 -0.125l-1.203125 0zm13.222946 11.09375l-2.5625 0l0 -9.671875l2.375 0l0 1.375q0.609375 -0.984375 1.09375 -1.28125q0.484375 -0.3125 1.109375 -0.3125q0.875 0 1.6875 0.484375l-0.796875 2.234375q-0.640625 -0.421875 -1.203125 -0.421875q-0.53125 0 -0.90625 0.296875q-0.375 0.296875 -0.59375 1.078125q-0.203125 0.765625 -0.203125 3.234375l0 2.984375zm4.807144 -10.984375l0 -2.375l2.5625 0l0 2.375l-2.5625 0zm0 10.984375l0 -9.671875l2.5625 0l0 9.671875l-2.5625 0zm7.839554 0l-3.90625 -9.671875l2.6875 0l1.828125 4.9375l0.53125 1.640625q0.203125 -0.625 0.265625 -0.828125q0.125 -0.40625 0.265625 -0.8125l1.84375 -4.9375l2.625 0l-3.84375 9.671875l-2.296875 0zm13.313217 -3.078125l2.546875 0.421875q-0.484375 1.40625 -1.546875 2.140625q-1.0625 0.734375 -2.65625 0.734375q-2.515625 0 -3.734375 -1.65625q-0.953125 -1.3125 -0.953125 -3.328125q0 -2.40625 1.25 -3.765625q1.265625 -1.359375 3.1875 -1.359375q2.15625 0 3.40625 1.421875q1.25 1.421875 1.1875 4.375l-6.40625 0q0.03125 1.140625 0.609375 1.78125q0.59375 0.625 1.484375 0.625q0.59375 0 1.0 -0.328125q0.421875 -0.328125 0.625 -1.0625zm0.15625 -2.59375q-0.03125 -1.109375 -0.578125 -1.6875q-0.546875 -0.578125 -1.328125 -0.578125q-0.84375 0 -1.390625 0.609375q-0.546875 0.609375 -0.53125 1.65625l3.828125 0zm7.078842 5.671875l-2.5625 0l0 -9.671875l2.375 0l0 1.375q0.609375 -0.984375 1.09375 -1.28125q0.484375 -0.3125 1.109375 -0.3125q0.875 0 1.6875 0.484375l-0.796875 2.234375q-0.640625 -0.421875 -1.203125 -0.421875q-0.53125 0 -0.90625 0.296875q-0.375 0.296875 -0.59375 1.078125q-0.203125 0.765625 -0.203125 3.234375l0 2.984375z" fill-rule="nonzero"/><path fill="#d9ead3" d="m13.937008 356.1344l0 0c0 -15.006195 12.164936 -27.171143 27.171146 -27.171143l454.16165 0c7.206238 0 14.11731 2.862671 19.212921 7.958252c5.095581 5.095581 7.958191 12.006653 7.958191 19.21289l0 108.681335c0 15.006195 -12.164917 27.171143 -27.171112 27.171143l-454.16165 0c-15.00621 0 -27.171146 -12.1649475 -27.171146 -27.171143z" fill-rule="evenodd"/><path stroke="#38761d" stroke-width="1.0" stroke-linejoin="round" stroke-linecap="butt" d="m13.937008 356.1344l0 0c0 -15.006195 12.164936 -27.171143 27.171146 -27.171143l454.16165 0c7.206238 0 14.11731 2.862671 19.212921 7.958252c5.095581 5.095581 7.958191 12.006653 7.958191 19.21289l0 108.681335c0 15.006195 -12.164917 27.171143 -27.171112 27.171143l-454.16165 0c-15.00621 0 -27.171146 -12.1649475 -27.171146 -27.171143z" fill-rule="evenodd"/><path fill="#f9cb9c" d="m47.707348 405.56982l0 0c0 -7.8683777 6.378601 -14.246979 14.247005 -14.246979l178.24615 0c3.7785492 0 7.4023285 1.5010071 10.074158 4.1728516c2.6718292 2.671814 4.1728516 6.2955933 4.1728516 10.074127l0 56.98633c0 7.868408 -6.378601 14.247009 -14.247009 14.247009l-178.24615 0c-7.8684044 0 -14.247005 -6.378601 -14.247005 -14.247009z" fill-rule="evenodd"/><path stroke="#b45f06" stroke-width="1.0" stroke-linejoin="round" stroke-linecap="butt" d="m47.707348 405.56982l0 0c0 -7.8683777 6.378601 -14.246979 14.247005 -14.246979l178.24615 0c3.7785492 0 7.4023285 1.5010071 10.074158 4.1728516c2.6718292 2.671814 4.1728516 6.2955933 4.1728516 10.074127l0 56.98633c0 7.868408 -6.378601 14.247009 -14.247009 14.247009l-178.24615 0c-7.8684044 0 -14.247005 -6.378601 -14.247005 -14.247009z" fill-rule="evenodd"/><path fill="#000000" d="m78.126274 440.983l0 -13.359375l9.90625 0l0 2.265625l-7.21875 0l0 2.953125l6.71875 0l0 2.25l-6.71875 0l0 3.640625l7.46875 0l0 2.25l-10.15625 0zm12.224823 -9.671875l2.359375 0l0 1.3125q1.265625 -1.53125 3.015625 -1.53125q0.9375 0 1.609375 0.390625q0.6875 0.375 1.125 1.140625q0.640625 -0.765625 1.375 -1.140625q0.75 -0.390625 1.578125 -0.390625q1.0625 0 1.796875 0.4375q0.75 0.421875 1.109375 1.265625q0.265625 0.625 0.265625 2.0l0 6.1875l-2.5625 0l0 -5.53125q0 -1.4375 -0.265625 -1.859375q-0.34375 -0.546875 -1.09375 -0.546875q-0.53125 0 -1.015625 0.328125q-0.46875 0.328125 -0.671875 0.96875q-0.203125 0.625 -0.203125 2.0l0 4.640625l-2.5625 0l0 -5.296875q0 -1.421875 -0.140625 -1.828125q-0.140625 -0.40625 -0.421875 -0.609375q-0.28125 -0.203125 -0.78125 -0.203125q-0.59375 0 -1.0625 0.328125q-0.46875 0.3125 -0.6875 0.921875q-0.203125 0.59375 -0.203125 1.984375l0 4.703125l-2.5625 0l0 -9.671875zm16.682144 9.671875l0 -13.359375l2.5625 0l0 4.8125q1.171875 -1.34375 2.796875 -1.34375q1.765625 0 2.921875 1.28125q1.15625 1.28125 1.15625 3.671875q0 2.484375 -1.1875 3.828125q-1.171875 1.328125 -2.859375 1.328125q-0.828125 0 -1.640625 -0.40625q-0.796875 -0.421875 -1.375 -1.234375l0 1.421875l-2.375 0zm2.53125 -5.046875q0 1.5 0.484375 2.21875q0.65625 1.03125 1.765625 1.03125q0.84375 0 1.4375 -0.71875q0.59375 -0.734375 0.59375 -2.296875q0 -1.65625 -0.609375 -2.390625q-0.59375 -0.734375 -1.53125 -0.734375q-0.921875 0 -1.53125 0.71875q-0.609375 0.71875 -0.609375 2.171875zm14.567856 1.96875l2.546875 0.421875q-0.484375 1.40625 -1.546875 2.140625q-1.0625 0.734375 -2.65625 0.734375q-2.515625 0 -3.734375 -1.65625q-0.953125 -1.3125 -0.953125 -3.328125q0 -2.40625 1.25 -3.765625q1.265625 -1.359375 3.1875 -1.359375q2.15625 0 3.40625 1.421875q1.25 1.421875 1.1875 4.375l-6.40625 0q0.03125 1.140625 0.609375 1.78125q0.59375 0.625 1.484375 0.625q0.59375 0 1.0 -0.328125q0.421875 -0.328125 0.625 -1.0625zm0.15625 -2.59375q-0.03125 -1.109375 -0.578125 -1.6875q-0.546875 -0.578125 -1.328125 -0.578125q-0.84375 0 -1.390625 0.609375q-0.546875 0.609375 -0.53125 1.65625l3.828125 0zm7.2819595 5.671875l-3.9062424 -9.671875l2.6874924 0l1.828125 4.9375l0.53125 1.640625q0.203125 -0.625 0.265625 -0.828125q0.125 -0.40625 0.265625 -0.8125l1.84375 -4.9375l2.625 0l-3.84375 9.671875l-2.296875 0zm13.313217 -3.078125l2.546875 0.421875q-0.484375 1.40625 -1.546875 2.140625q-1.0625 0.734375 -2.65625 0.734375q-2.515625 0 -3.734375 -1.65625q-0.953125 -1.3125 -0.953125 -3.328125q0 -2.40625 1.25 -3.765625q1.265625 -1.359375 3.1875 -1.359375q2.15625 0 3.40625 1.421875q1.25 1.421875 1.1875 4.375l-6.40625 0q0.03125 1.140625 0.609375 1.78125q0.59375 0.625 1.484375 0.625q0.59375 0 1.0 -0.328125q0.421875 -0.328125 0.625 -1.0625zm0.15625 -2.59375q-0.03125 -1.109375 -0.578125 -1.6875q-0.546875 -0.578125 -1.328125 -0.578125q-0.84375 0 -1.390625 0.609375q-0.546875 0.609375 -0.53125 1.65625l3.828125 0zm7.078842 5.671875l-2.5625 0l0 -9.671875l2.375 0l0 1.375q0.609375 -0.984375 1.09375 -1.28125q0.484375 -0.3125 1.109375 -0.3125q0.875 0 1.6875 0.484375l-0.796875 2.234375q-0.640625 -0.421875 -1.203125 -0.421875q-0.53125 0 -0.90625 0.296875q-0.375 0.296875 -0.59375 1.078125q-0.203125 0.765625 -0.203125 3.234375l0 2.984375zm9.927948 0l0 -13.359375l2.6875 0l0 13.359375l-2.6875 0zm13.339554 -2.375l0 2.375l-8.96875 0q0.140625 -1.34375 0.859375 -2.546875q0.734375 -1.21875 2.890625 -3.203125q1.734375 -1.625 2.125 -2.1875q0.53125 -0.796875 0.53125 -1.578125q0 -0.84375 -0.46875 -1.296875q-0.453125 -0.46875 -1.265625 -0.46875q-0.796875 0 -1.28125 0.484375q-0.46875 0.46875 -0.546875 1.59375l-2.546875 -0.25q0.234375 -2.109375 1.421875 -3.03125q1.203125 -0.921875 3.015625 -0.921875q1.96875 0 3.09375 1.0625q1.140625 1.0625 1.140625 2.65625q0 0.890625 -0.328125 1.71875q-0.3125 0.8125 -1.015625 1.703125q-0.46875 0.59375 -1.6875 1.703125q-1.203125 1.109375 -1.53125 1.484375q-0.3125 0.359375 -0.515625 0.703125l5.078125 0zm10.844467 -2.53125l2.609375 0.828125q-0.59375 2.1875 -2.0 3.25q-1.390625 1.0625 -3.546875 1.0625q-2.65625 0 -4.375 -1.8125q-1.703125 -1.828125 -1.703125 -4.984375q0 -3.328125 1.71875 -5.171875q1.71875 -1.84375 4.515625 -1.84375q2.453125 0 3.984375 1.4375q0.921875 0.859375 1.375 2.46875l-2.671875 0.640625q-0.234375 -1.046875 -0.984375 -1.640625q-0.75 -0.609375 -1.828125 -0.609375q-1.484375 0 -2.421875 1.078125q-0.921875 1.0625 -0.921875 3.4375q0 2.53125 0.90625 3.609375q0.921875 1.078125 2.375 1.078125q1.078125 0 1.84375 -0.671875q0.78125 -0.6875 1.125 -2.15625zm21.463562 4.90625l-2.9375 0l-1.171875 -3.03125l-5.328125 0l-1.109375 3.03125l-2.859375 0l5.203125 -13.359375l2.84375 0l5.359375 13.359375zm-4.96875 -5.28125l-1.84375 -4.953125l-1.796875 4.953125l3.640625 0zm6.394806 5.28125l0 -13.359375l4.328125 0q2.453125 0 3.203125 0.203125q1.140625 0.296875 1.921875 1.3125q0.78125 1.0 0.78125 2.59375q0 1.234375 -0.453125 2.078125q-0.453125 0.828125 -1.140625 1.3125q-0.6875 0.46875 -1.390625 0.625q-0.96875 0.203125 -2.796875 0.203125l-1.765625 0l0 5.03125l-2.6875 0zm2.6875 -11.09375l0 3.78125l1.484375 0q1.59375 0 2.125 -0.203125q0.546875 -0.203125 0.84375 -0.65625q0.3125 -0.453125 0.3125 -1.03125q0 -0.734375 -0.4375 -1.203125q-0.421875 -0.484375 -1.078125 -0.59375q-0.484375 -0.09375 -1.9375 -0.09375l-1.3125 0zm9.677948 11.09375l0 -13.359375l2.6875 0l0 13.359375l-2.6875 0z" fill-rule="nonzero"/><path fill="#f9cb9c" d="m13.937008 174.11183l0 0c0 -7.868408 6.378601 -14.247009 14.247004 -14.247009l480.00992 0c3.778534 0 7.402313 1.5010223 10.074127 4.1728516c2.671875 2.6718445 4.1728516 6.295624 4.1728516 10.074158l0 56.986313c0 7.868393 -6.378601 14.246994 -14.246979 14.246994l-480.00992 0c-7.8684025 0 -14.247004 -6.378601 -14.247004 -14.246994z" fill-rule="evenodd"/><path stroke="#b45f06" stroke-width="1.0" stroke-linejoin="round" stroke-linecap="butt" d="m13.937008 174.11183l0 0c0 -7.868408 6.378601 -14.247009 14.247004 -14.247009l480.00992 0c3.778534 0 7.402313 1.5010223 10.074127 4.1728516c2.671875 2.6718445 4.1728516 6.295624 4.1728516 10.074158l0 56.986313c0 7.868393 -6.378601 14.246994 -14.246979 14.246994l-480.00992 0c-7.8684025 0 -14.247004 -6.378601 -14.247004 -14.246994z" fill-rule="evenodd"/><path fill="#000000" d="m133.1974 209.52498l0 -13.359375l9.90625 0l0 2.265625l-7.21875 0l0 2.953125l6.71875 0l0 2.25l-6.71875 0l0 3.640625l7.46875 0l0 2.25l-10.15625 0zm12.224823 -9.671875l2.359375 0l0 1.3125q1.265625 -1.53125 3.015625 -1.53125q0.9375 0 1.609375 0.390625q0.6875 0.375 1.125 1.140625q0.640625 -0.765625 1.375 -1.140625q0.75 -0.390625 1.578125 -0.390625q1.0625 0 1.796875 0.4375q0.75 0.421875 1.109375 1.265625q0.265625 0.625 0.265625 2.0l0 6.1875l-2.5625 0l0 -5.53125q0 -1.4375 -0.265625 -1.859375q-0.34375 -0.546875 -1.09375 -0.546875q-0.53125 0 -1.015625 0.328125q-0.46875 0.328125 -0.671875 0.96875q-0.203125 0.625 -0.203125 2.0l0 4.640625l-2.5625 0l0 -5.296875q0 -1.421875 -0.140625 -1.828125q-0.140625 -0.40625 -0.421875 -0.609375q-0.28125 -0.203125 -0.78125 -0.203125q-0.59375 0 -1.0625 0.328125q-0.46875 0.3125 -0.6875 0.921875q-0.203125 0.59375 -0.203125 1.984375l0 4.703125l-2.5625 0l0 -9.671875zm16.682144 9.671875l0 -13.359375l2.5625 0l0 4.8125q1.171875 -1.34375 2.796875 -1.34375q1.765625 0 2.921875 1.28125q1.15625 1.28125 1.15625 3.671875q0 2.484375 -1.1875 3.828125q-1.171875 1.328125 -2.859375 1.328125q-0.828125 0 -1.640625 -0.40625q-0.796875 -0.421875 -1.375 -1.234375l0 1.421875l-2.375 0zm2.53125 -5.046875q0 1.5 0.484375 2.21875q0.65625 1.03125 1.765625 1.03125q0.84375 0 1.4375 -0.71875q0.59375 -0.734375 0.59375 -2.296875q0 -1.65625 -0.609375 -2.390625q-0.59375 -0.734375 -1.53125 -0.734375q-0.921875 0 -1.53125 0.71875q-0.609375 0.71875 -0.609375 2.171875zm14.567856 1.96875l2.546875 0.421875q-0.484375 1.40625 -1.546875 2.140625q-1.0625 0.734375 -2.65625 0.734375q-2.515625 0 -3.734375 -1.65625q-0.953125 -1.3125 -0.953125 -3.328125q0 -2.40625 1.25 -3.765625q1.265625 -1.359375 3.1875 -1.359375q2.15625 0 3.40625 1.421875q1.25 1.421875 1.1875 4.375l-6.40625 0q0.03125 1.140625 0.609375 1.78125q0.59375 0.625 1.484375 0.625q0.59375 0 1.0 -0.328125q0.421875 -0.328125 0.625 -1.0625zm0.15625 -2.59375q-0.03125 -1.109375 -0.578125 -1.6875q-0.546875 -0.578125 -1.328125 -0.578125q-0.84375 0 -1.390625 0.609375q-0.546875 0.609375 -0.53125 1.65625l3.828125 0zm7.281967 5.671875l-3.90625 -9.671875l2.6875 0l1.828125 4.9375l0.53125 1.640625q0.203125 -0.625 0.265625 -0.828125q0.125 -0.40625 0.265625 -0.8125l1.84375 -4.9375l2.625 0l-3.84375 9.671875l-2.296875 0zm13.313217 -3.078125l2.546875 0.421875q-0.484375 1.40625 -1.546875 2.140625q-1.0625 0.734375 -2.65625 0.734375q-2.515625 0 -3.734375 -1.65625q-0.953125 -1.3125 -0.953125 -3.328125q0 -2.40625 1.25 -3.765625q1.265625 -1.359375 3.1875 -1.359375q2.15625 0 3.40625 1.421875q1.25 1.421875 1.1875 4.375l-6.40625 0q0.03125 1.140625 0.609375 1.78125q0.59375 0.625 1.484375 0.625q0.59375 0 1.0 -0.328125q0.421875 -0.328125 0.625 -1.0625zm0.15625 -2.59375q-0.03125 -1.109375 -0.578125 -1.6875q-0.546875 -0.578125 -1.328125 -0.578125q-0.84375 0 -1.390625 0.609375q-0.546875 0.609375 -0.53125 1.65625l3.828125 0zm7.078842 5.671875l-2.5625 0l0 -9.671875l2.375 0l0 1.375q0.609375 -0.984375 1.09375 -1.28125q0.484375 -0.3125 1.109375 -0.3125q0.875 0 1.6875 0.484375l-0.796875 2.234375q-0.640625 -0.421875 -1.203125 -0.421875q-0.53125 0 -0.90625 0.296875q-0.375 0.296875 -0.59375 1.078125q-0.203125 0.765625 -0.203125 3.234375l0 2.984375zm9.318573 -4.34375l2.625 -0.25q0.234375 1.3125 0.953125 1.9375q0.734375 0.609375 1.96875 0.609375q1.296875 0 1.953125 -0.546875q0.671875 -0.546875 0.671875 -1.28125q0 -0.484375 -0.28125 -0.8125q-0.28125 -0.328125 -0.96875 -0.578125q-0.484375 -0.15625 -2.171875 -0.578125q-2.15625 -0.546875 -3.03125 -1.328125q-1.234375 -1.09375 -1.234375 -2.6875q0 -1.015625 0.578125 -1.90625q0.578125 -0.890625 1.65625 -1.34375q1.09375 -0.46875 2.640625 -0.46875q2.515625 0 3.78125 1.109375q1.28125 1.09375 1.34375 2.9375l-2.703125 0.109375q-0.171875 -1.03125 -0.75 -1.46875q-0.5625 -0.453125 -1.703125 -0.453125q-1.171875 0 -1.84375 0.46875q-0.421875 0.3125 -0.421875 0.84375q0 0.46875 0.40625 0.796875q0.5 0.4375 2.46875 0.90625q1.96875 0.453125 2.90625 0.953125q0.953125 0.5 1.484375 1.359375q0.53125 0.859375 0.53125 2.125q0 1.15625 -0.640625 2.15625q-0.640625 1.0 -1.8125 1.484375q-1.15625 0.484375 -2.890625 0.484375q-2.53125 0 -3.890625 -1.171875q-1.359375 -1.171875 -1.625 -3.40625zm18.709198 1.265625l2.546875 0.421875q-0.484375 1.40625 -1.546875 2.140625q-1.0625 0.734375 -2.65625 0.734375q-2.515625 0 -3.734375 -1.65625q-0.953125 -1.3125 -0.953125 -3.328125q0 -2.40625 1.25 -3.765625q1.265625 -1.359375 3.1875 -1.359375q2.15625 0 3.40625 1.421875q1.25 1.421875 1.1875 4.375l-6.40625 0q0.03125 1.140625 0.609375 1.78125q0.59375 0.625 1.484375 0.625q0.59375 0 1.0 -0.328125q0.421875 -0.328125 0.625 -1.0625zm0.15625 -2.59375q-0.03125 -1.109375 -0.578125 -1.6875q-0.546875 -0.578125 -1.328125 -0.578125q-0.84375 0 -1.390625 0.609375q-0.546875 0.609375 -0.53125 1.65625l3.828125 0zm7.078842 5.671875l-2.5625 0l0 -9.671875l2.375 0l0 1.375q0.609375 -0.984375 1.09375 -1.28125q0.484375 -0.3125 1.109375 -0.3125q0.875 0 1.6875 0.484375l-0.796875 2.234375q-0.640625 -0.421875 -1.203125 -0.421875q-0.53125 0 -0.90625 0.296875q-0.375 0.296875 -0.59375 1.078125q-0.203125 0.765625 -0.203125 3.234375l0 2.984375zm4.807144 -10.984375l0 -2.375l2.5625 0l0 2.375l-2.5625 0zm0 10.984375l0 -9.671875l2.5625 0l0 9.671875l-2.5625 0zm7.089554 -6.71875l-2.328125 -0.421875q0.40625 -1.40625 1.359375 -2.078125q0.953125 -0.671875 2.8437347 -0.671875q1.703125 0 2.546875 0.40625q0.84375 0.40625 1.171875 1.03125q0.34375 0.625 0.34375 2.28125l-0.015625 3.0q0 1.265625 0.109375 1.875q0.125 0.609375 0.46875 1.296875l-2.53125 0q-0.109375 -0.25 -0.25 -0.75q-0.0625 -0.234375 -0.09375 -0.3125q-0.65625 0.640625 -1.40625 0.96875q-0.73435974 0.3125 -1.5937347 0.3125q-1.484375 0 -2.34375 -0.8125q-0.859375 -0.8125 -0.859375 -2.046875q0 -0.828125 0.390625 -1.46875q0.390625 -0.640625 1.09375 -0.96875q0.703125 -0.34375 2.03125 -0.609375q1.7968597 -0.328125 2.4843597 -0.625l0 -0.25q0 -0.75 -0.359375 -1.0625q-0.359375 -0.3125 -1.375 -0.3125q-0.68748474 0 -1.0781097 0.28125q-0.375 0.265625 -0.609375 0.9375zm3.4218597 2.078125q-0.484375 0.15625 -1.5625 0.390625q-1.0624847 0.21875 -1.3906097 0.4375q-0.5 0.359375 -0.5 0.90625q0 0.53125 0.40625 0.9375q0.40625 0.390625 1.015625 0.390625q0.70310974 0 1.3281097 -0.46875q0.46875 -0.34375 0.609375 -0.84375q0.09375 -0.328125 0.09375 -1.25l0 -0.5zm5.0476074 4.640625l0 -13.359375l2.5625 0l0 13.359375l-2.5625 0zm10.382233 0l0 -13.359375l4.3280945 0q2.453125 0 3.203125 0.203125q1.140625 0.296875 1.921875 1.3125q0.78125 1.0 0.78125 2.59375q0 1.234375 -0.453125 2.078125q-0.453125 0.828125 -1.140625 1.3125q-0.6875 0.46875 -1.390625 0.625q-0.96875 0.203125 -2.796875 0.203125l-1.765625 0l0 5.03125l-2.6874695 0zm2.6874695 -11.09375l0 3.78125l1.484375 0q1.59375 0 2.125 -0.203125q0.546875 -0.203125 0.84375 -0.65625q0.3125 -0.453125 0.3125 -1.03125q0 -0.734375 -0.4375 -1.203125q-0.421875 -0.484375 -1.078125 -0.59375q-0.484375 -0.09375 -1.9375 -0.09375l-1.3125 0zm12.1936035 11.09375l-2.5625 0l0 -9.671875l2.375 0l0 1.375q0.609375 -0.984375 1.09375 -1.28125q0.484375 -0.3125 1.109375 -0.3125q0.875 0 1.6875 0.484375l-0.796875 2.234375q-0.640625 -0.421875 -1.203125 -0.421875q-0.53125 0 -0.90625 0.296875q-0.375 0.296875 -0.59375 1.078125q-0.203125 0.765625 -0.203125 3.234375l0 2.984375zm4.213379 -4.96875q0 -1.28125 0.625 -2.46875q0.625 -1.203125 1.78125 -1.828125q1.15625 -0.625 2.578125 -0.625q2.1875 0 3.59375 1.421875q1.40625 1.421875 1.40625 3.609375q0 2.1875 -1.421875 3.640625q-1.421875 1.4375 -3.5625 1.4375q-1.328125 0 -2.546875 -0.59375q-1.203125 -0.609375 -1.828125 -1.765625q-0.625 -1.171875 -0.625 -2.828125zm2.625 0.125q0 1.453125 0.671875 2.21875q0.6875 0.75 1.6875 0.75q1.0 0 1.671875 -0.75q0.6875 -0.765625 0.6875 -2.234375q0 -1.421875 -0.6875 -2.1875q-0.671875 -0.765625 -1.671875 -0.765625q-1.0 0 -1.6875 0.765625q-0.671875 0.765625 -0.671875 2.203125zm13.802246 -4.828125l0 2.03125l-1.75 0l0 3.90625q0 1.1875 0.046875 1.390625q0.046875 0.1875 0.21875 0.3125q0.1875 0.125 0.4375 0.125q0.359375 0 1.03125 -0.25l0.21875 2.0q-0.890625 0.375 -2.015625 0.375q-0.703125 0 -1.265625 -0.234375q-0.546875 -0.234375 -0.8125 -0.59375q-0.25 -0.375 -0.34375 -1.0q-0.09375 -0.453125 -0.09375 -1.8125l0 -4.21875l-1.171875 0l0 -2.03125l1.171875 0l0 -1.921875l2.578125 -1.5l0 3.421875l1.75 0zm1.1813965 4.703125q0 -1.28125 0.625 -2.46875q0.625 -1.203125 1.78125 -1.828125q1.15625 -0.625 2.578125 -0.625q2.1875 0 3.59375 1.421875q1.40625 1.421875 1.40625 3.609375q0 2.1875 -1.421875 3.640625q-1.421875 1.4375 -3.5625 1.4375q-1.328125 0 -2.546875 -0.59375q-1.203125 -0.609375 -1.828125 -1.765625q-0.625 -1.171875 -0.625 -2.828125zm2.625 0.125q0 1.453125 0.671875 2.21875q0.6875 0.75 1.6875 0.75q1.0 0 1.671875 -0.75q0.6875 -0.765625 0.6875 -2.234375q0 -1.421875 -0.6875 -2.1875q-0.671875 -0.765625 -1.671875 -0.765625q-1.0 0 -1.6875 0.765625q-0.671875 0.765625 -0.671875 2.203125zm17.802246 -1.96875l-2.53125 0.453125q-0.125 -0.75 -0.578125 -1.125q-0.453125 -0.390625 -1.171875 -0.390625q-0.953125 0 -1.53125 0.65625q-0.5625 0.65625 -0.5625 2.203125q0 1.734375 0.578125 2.4375q0.578125 0.703125 1.546875 0.703125q0.734375 0 1.203125 -0.40625q0.46875 -0.421875 0.65625 -1.421875l2.515625 0.421875q-0.390625 1.734375 -1.515625 2.625q-1.109375 0.875 -2.96875 0.875q-2.125 0 -3.390625 -1.328125q-1.25 -1.34375 -1.25 -3.71875q0 -2.390625 1.265625 -3.71875q1.265625 -1.34375 3.421875 -1.34375q1.765625 0 2.796875 0.765625q1.046875 0.75 1.515625 2.3125zm1.3444824 1.84375q0 -1.28125 0.625 -2.46875q0.625 -1.203125 1.78125 -1.828125q1.15625 -0.625 2.578125 -0.625q2.1875 0 3.59375 1.421875q1.40625 1.421875 1.40625 3.609375q0 2.1875 -1.421875 3.640625q-1.421875 1.4375 -3.5625 1.4375q-1.328125 0 -2.546875 -0.59375q-1.203125 -0.609375 -1.828125 -1.765625q-0.625 -1.171875 -0.625 -2.828125zm2.625 0.125q0 1.453125 0.671875 2.21875q0.6875 0.75 1.6875 0.75q1.0 0 1.671875 -0.75q0.6875 -0.765625 0.6875 -2.234375q0 -1.421875 -0.6875 -2.1875q-0.671875 -0.765625 -1.671875 -0.765625q-1.0 0 -1.6875 0.765625q-0.671875 0.765625 -0.671875 2.203125zm9.364716 4.84375l0 -13.359375l2.5625 0l0 13.359375l-2.5625 0zm19.241608 0l-2.390625 0l0 -1.421875q-0.59375 0.828125 -1.40625 1.234375q-0.796875 0.40625 -1.609375 0.40625q-1.671875 0 -2.859375 -1.34375q-1.1875 -1.34375 -1.1875 -3.75q0 -2.453125 1.15625 -3.734375q1.15625 -1.28125 2.921875 -1.28125q1.625 0 2.8125 1.34375l0 -4.8125l2.5625 0l0 13.359375zm-6.84375 -5.046875q0 1.546875 0.4375 2.234375q0.609375 1.015625 1.71875 1.015625q0.890625 0 1.5 -0.75q0.625 -0.765625 0.625 -2.25q0 -1.671875 -0.609375 -2.40625q-0.59375 -0.734375 -1.53125 -0.734375q-0.90625 0 -1.53125 0.734375q-0.609375 0.71875 -0.609375 2.15625zm11.817871 5.046875l-2.5625 0l0 -9.671875l2.375 0l0 1.375q0.609375 -0.984375 1.09375 -1.28125q0.484375 -0.3125 1.109375 -0.3125q0.875 0 1.6875 0.484375l-0.796875 2.234375q-0.640625 -0.421875 -1.203125 -0.421875q-0.53125 0 -0.90625 0.296875q-0.375 0.296875 -0.59375 1.078125q-0.203125 0.765625 -0.203125 3.234375l0 2.984375zm4.807129 -10.984375l0 -2.375l2.5625 0l0 2.375l-2.5625 0zm0 10.984375l0 -9.671875l2.5625 0l0 9.671875l-2.5625 0zm7.8395386 0l-3.90625 -9.671875l2.6875 0l1.828125 4.9375l0.53125 1.640625q0.203125 -0.625 0.265625 -0.828125q0.125 -0.40625 0.265625 -0.8125l1.84375 -4.9375l2.625 0l-3.84375 9.671875l-2.296875 0zm13.313232 -3.078125l2.546875 0.421875q-0.484375 1.40625 -1.546875 2.140625q-1.0625 0.734375 -2.65625 0.734375q-2.515625 0 -3.734375 -1.65625q-0.953125 -1.3125 -0.953125 -3.328125q0 -2.40625 1.25 -3.765625q1.265625 -1.359375 3.1875 -1.359375q2.15625 0 3.40625 1.421875q1.25 1.421875 1.1875 4.375l-6.40625 0q0.03125 1.140625 0.609375 1.78125q0.59375 0.625 1.484375 0.625q0.59375 0 1.0 -0.328125q0.421875 -0.328125 0.625 -1.0625zm0.15625 -2.59375q-0.03125 -1.109375 -0.578125 -1.6875q-0.546875 -0.578125 -1.328125 -0.578125q-0.84375 0 -1.390625 0.609375q-0.546875 0.609375 -0.53125 1.65625l3.828125 0zm7.0788574 5.671875l-2.5625 0l0 -9.671875l2.375 0l0 1.375q0.609375 -0.984375 1.09375 -1.28125q0.484375 -0.3125 1.109375 -0.3125q0.875 0 1.6875 0.484375l-0.796875 2.234375q-0.640625 -0.421875 -1.203125 -0.421875q-0.53125 0 -0.90625 0.296875q-0.375 0.296875 -0.59375 1.078125q-0.203125 0.765625 -0.203125 3.234375l0 2.984375z" fill-rule="nonzero"/><path fill="#f9cb9c" d="m13.937008 76.32443l0 0c0 -7.8684006 6.378601 -14.247005 14.247004 -14.247005l480.00992 0c3.778534 0 7.402313 1.5010185 10.074127 4.1728554c2.671875 2.6718292 4.1728516 6.2956085 4.1728516 10.07415l0 56.986313c0 7.868393 -6.378601 14.246994 -14.246979 14.246994l-480.00992 0c-7.8684025 0 -14.247004 -6.378601 -14.247004 -14.246994z" fill-rule="evenodd"/><path stroke="#b45f06" stroke-width="1.0" stroke-linejoin="round" stroke-linecap="butt" d="m13.937008 76.32443l0 0c0 -7.8684006 6.378601 -14.247005 14.247004 -14.247005l480.00992 0c3.778534 0 7.402313 1.5010185 10.074127 4.1728554c2.671875 2.6718292 4.1728516 6.2956085 4.1728516 10.07415l0 56.986313c0 7.868393 -6.378601 14.246994 -14.246979 14.246994l-480.00992 0c-7.8684025 0 -14.247004 -6.378601 -14.247004 -14.246994z" fill-rule="evenodd"/><path fill="#000000" d="m144.96706 111.73759l0 -13.359375l9.90625 0l0 2.265625l-7.21875 0l0 2.953125l6.71875 0l0 2.25l-6.71875 0l0 3.640625l7.46875 0l0 2.25l-10.15625 0zm12.224823 -9.671875l2.359375 0l0 1.3125q1.265625 -1.53125 3.015625 -1.53125q0.9375 0 1.609375 0.390625q0.6875 0.375 1.125 1.140625q0.640625 -0.765625 1.375 -1.140625q0.75 -0.390625 1.578125 -0.390625q1.0625 0 1.796875 0.4375q0.75 0.421875 1.109375 1.265625q0.265625 0.625 0.265625 2.0l0 6.1875l-2.5625 0l0 -5.53125q0 -1.4375 -0.265625 -1.859375q-0.34375 -0.546875 -1.09375 -0.546875q-0.53125 0 -1.015625 0.328125q-0.46875 0.328125 -0.671875 0.96875q-0.203125 0.625 -0.203125 2.0l0 4.640625l-2.5625 0l0 -5.296875q0 -1.421875 -0.140625 -1.828125q-0.140625 -0.40625 -0.421875 -0.609375q-0.28125 -0.203125 -0.78125 -0.203125q-0.59375 0 -1.0625 0.328125q-0.46875 0.3125 -0.6875 0.921875q-0.203125 0.59375 -0.203125 1.984375l0 4.703125l-2.5625 0l0 -9.671875zm16.68216 9.671875l0 -13.359375l2.5625 0l0 4.8125q1.171875 -1.34375 2.796875 -1.34375q1.765625 0 2.921875 1.28125q1.15625 1.28125 1.15625 3.671875q0 2.484375 -1.1875 3.828125q-1.171875 1.328125 -2.859375 1.328125q-0.828125 0 -1.640625 -0.40625q-0.796875 -0.421875 -1.375 -1.234375l0 1.421875l-2.375 0zm2.53125 -5.046875q0 1.5 0.484375 2.21875q0.65625 1.03125 1.765625 1.03125q0.84375 0 1.4375 -0.71875q0.59375 -0.734375 0.59375 -2.296875q0 -1.65625 -0.609375 -2.390625q-0.59375 -0.734375 -1.53125 -0.734375q-0.921875 0 -1.53125 0.71875q-0.609375 0.71875 -0.609375 2.171875zm14.567841 1.96875l2.546875 0.421875q-0.484375 1.40625 -1.546875 2.140625q-1.0625 0.734375 -2.65625 0.734375q-2.515625 0 -3.734375 -1.65625q-0.953125 -1.3125 -0.953125 -3.328125q0 -2.40625 1.25 -3.765625q1.265625 -1.359375 3.1875 -1.359375q2.15625 0 3.40625 1.421875q1.25 1.421875 1.1875 4.375l-6.40625 0q0.03125 1.140625 0.609375 1.78125q0.59375 0.625 1.484375 0.625q0.59375 0 1.0 -0.328125q0.421875 -0.328125 0.625 -1.0625zm0.15625 -2.59375q-0.03125 -1.109375 -0.578125 -1.6875q-0.546875 -0.578125 -1.328125 -0.578125q-0.84375 0 -1.390625 0.609375q-0.546875 0.609375 -0.53125 1.65625l3.828125 0zm7.2819824 5.671875l-3.90625 -9.671875l2.6875 0l1.828125 4.9375l0.53125 1.640625q0.203125 -0.625 0.265625 -0.828125q0.125 -0.40625 0.265625 -0.8125l1.84375 -4.9375l2.625 0l-3.84375 9.671875l-2.296875 0zm13.313202 -3.078125l2.546875 0.421875q-0.484375 1.40625 -1.546875 2.140625q-1.0625 0.734375 -2.65625 0.734375q-2.515625 0 -3.734375 -1.65625q-0.953125 -1.3125 -0.953125 -3.328125q0 -2.40625 1.25 -3.765625q1.265625 -1.359375 3.1875 -1.359375q2.15625 0 3.40625 1.421875q1.25 1.421875 1.1875 4.375l-6.40625 0q0.03125 1.140625 0.609375 1.78125q0.59375 0.625 1.484375 0.625q0.59375 0 1.0 -0.328125q0.421875 -0.328125 0.625 -1.0625zm0.15625 -2.59375q-0.03125 -1.109375 -0.578125 -1.6875q-0.546875 -0.578125 -1.328125 -0.578125q-0.84375 0 -1.390625 0.609375q-0.546875 0.609375 -0.53125 1.65625l3.828125 0zm7.0788574 5.671875l-2.5625 0l0 -9.671875l2.375 0l0 1.375q0.609375 -0.984375 1.09375 -1.28125q0.484375 -0.3125 1.109375 -0.3125q0.875 0 1.6875 0.484375l-0.796875 2.234375q-0.640625 -0.421875 -1.203125 -0.421875q-0.53125 0 -0.90625 0.296875q-0.375 0.296875 -0.59375 1.078125q-0.203125 0.765625 -0.203125 3.234375l0 2.984375zm9.927948 0l0 -13.359375l2.6875 0l0 13.359375l-2.6875 0zm4.6520386 -4.96875q0 -1.28125 0.625 -2.46875q0.625 -1.203125 1.78125 -1.828125q1.15625 -0.625 2.578125 -0.625q2.1875 0 3.59375 1.421875q1.40625 1.421875 1.40625 3.609375q0 2.1875 -1.421875 3.640625q-1.421875 1.4375 -3.5625 1.4375q-1.328125 0 -2.546875 -0.59375q-1.203125 -0.609375 -1.828125 -1.765625q-0.625 -1.171875 -0.625 -2.828125zm2.625 0.125q0 1.453125 0.671875 2.21875q0.6875 0.75 1.6875 0.75q1.0 0 1.671875 -0.75q0.6875 -0.765625 0.6875 -2.234375q0 -1.421875 -0.6875 -2.1875q-0.671875 -0.765625 -1.671875 -0.765625q-1.0 0 -1.6875 0.765625q-0.671875 0.765625 -0.671875 2.203125zm12.380371 4.84375l0 -11.09375l-3.953125 0l0 -2.265625l10.609375 0l0 2.265625l-3.953125 0l0 11.09375l-2.703125 0zm13.548019 0l0 -13.359375l4.03125 0l2.421875 9.109375l2.390625 -9.109375l4.046875 0l0 13.359375l-2.5 0l0 -10.515625l-2.65625 10.515625l-2.59375 0l-2.640625 -10.515625l0 10.515625l-2.5 0zm21.150177 -3.078125l2.546875 0.421875q-0.484375 1.40625 -1.546875 2.140625q-1.0625 0.734375 -2.65625 0.734375q-2.515625 0 -3.734375 -1.65625q-0.953125 -1.3125 -0.953125 -3.328125q0 -2.40625 1.25 -3.765625q1.265625 -1.359375 3.1875 -1.359375q2.15625 0 3.40625 1.421875q1.25 1.421875 1.1875 4.375l-6.40625 0q0.03125 1.140625 0.609375 1.78125q0.59375 0.625 1.484375 0.625q0.59375 0 1.0 -0.328125q0.421875 -0.328125 0.625 -1.0625zm0.15625 -2.59375q-0.03125 -1.109375 -0.578125 -1.6875q-0.546875 -0.578125 -1.328125 -0.578125q-0.84375 0 -1.390625 0.609375q-0.546875 0.609375 -0.53125 1.65625l3.828125 0zm3.719452 2.90625l2.5625 -0.390625q0.171875 0.75 0.671875 1.140625q0.5 0.390625 1.40625 0.390625q0.984375 0 1.484375 -0.375q0.34375 -0.25 0.34375 -0.671875q0 -0.296875 -0.1875 -0.484375q-0.1875 -0.1875 -0.859375 -0.34375q-3.09375 -0.6875 -3.921875 -1.25q-1.140625 -0.78125 -1.140625 -2.171875q0 -1.265625 0.984375 -2.109375q1.0 -0.859375 3.078125 -0.859375q1.984375 0 2.953125 0.65625q0.96875 0.640625 1.328125 1.90625l-2.40625 0.4375q-0.15625 -0.5625 -0.59375 -0.859375q-0.421875 -0.296875 -1.234375 -0.296875q-1.0 0 -1.4375 0.28125q-0.296875 0.203125 -0.296875 0.515625q0 0.265625 0.25 0.46875q0.34375 0.25 2.390625 0.71875q2.046875 0.453125 2.859375 1.140625q0.796875 0.671875 0.796875 1.890625q0 1.34375 -1.109375 2.296875q-1.109375 0.953125 -3.28125 0.953125q-1.984375 0 -3.140625 -0.796875q-1.140625 -0.8125 -1.5 -2.1875zm10.375732 0l2.5625 -0.390625q0.171875 0.75 0.671875 1.140625q0.5 0.390625 1.40625 0.390625q0.984375 0 1.484375 -0.375q0.34375 -0.25 0.34375 -0.671875q0 -0.296875 -0.1875 -0.484375q-0.1875 -0.1875 -0.859375 -0.34375q-3.09375 -0.6875 -3.921875 -1.25q-1.140625 -0.78125 -1.140625 -2.171875q0 -1.265625 0.984375 -2.109375q1.0 -0.859375 3.078125 -0.859375q1.984375 0 2.953125 0.65625q0.96875 0.640625 1.328125 1.90625l-2.40625 0.4375q-0.15625 -0.5625 -0.59375 -0.859375q-0.421875 -0.296875 -1.234375 -0.296875q-1.0 0 -1.4375 0.28125q-0.296875 0.203125 -0.296875 0.515625q0 0.265625 0.25 0.46875q0.34375 0.25 2.390625 0.71875q2.046875 0.453125 2.859375 1.140625q0.796875 0.671875 0.796875 1.890625q0 1.34375 -1.109375 2.296875q-1.109375 0.953125 -3.28125 0.953125q-1.984375 0 -3.140625 -0.796875q-1.140625 -0.8125 -1.5 -2.1875zm13.188202 -3.953125l-2.328125 -0.421875q0.40625 -1.40625 1.359375 -2.078125q0.953125 -0.671875 2.84375 -0.671875q1.703125 0 2.546875 0.40625q0.84375 0.40625 1.171875 1.03125q0.34375 0.625 0.34375 2.28125l-0.015625 3.0q0 1.265625 0.109375 1.875q0.125 0.609375 0.46875 1.296875l-2.53125 0q-0.109375 -0.25 -0.25 -0.75q-0.0625 -0.234375 -0.09375 -0.3125q-0.65625 0.640625 -1.40625 0.96875q-0.734375 0.3125 -1.59375 0.3125q-1.484375 0 -2.34375 -0.8125q-0.859375 -0.8125 -0.859375 -2.046875q0 -0.828125 0.390625 -1.46875q0.390625 -0.640625 1.09375 -0.96875q0.703125 -0.34375 2.03125 -0.609375q1.796875 -0.328125 2.484375 -0.625l0 -0.25q0 -0.75 -0.359375 -1.0625q-0.359375 -0.3125 -1.375 -0.3125q-0.6875 0 -1.078125 0.28125q-0.375 0.265625 -0.609375 0.9375zm3.421875 2.078125q-0.484375 0.15625 -1.5625 0.390625q-1.0625 0.21875 -1.390625 0.4375q-0.5 0.359375 -0.5 0.90625q0 0.53125 0.40625 0.9375q0.40625 0.390625 1.015625 0.390625q0.703125 0 1.328125 -0.46875q0.46875 -0.34375 0.609375 -0.84375q0.09375 -0.328125 0.09375 -1.25l0 -0.5zm4.8132324 5.28125l2.921875 0.359375q0.0625 0.5 0.328125 0.6875q0.375 0.28125 1.15625 0.28125q1.0 0 1.5 -0.296875q0.328125 -0.203125 0.515625 -0.65625q0.109375 -0.3125 0.109375 -1.171875l0 -1.40625q-1.140625 1.5625 -2.890625 1.5625q-1.953125 0 -3.09375 -1.65625q-0.890625 -1.296875 -0.890625 -3.234375q0 -2.4375 1.171875 -3.71875q1.171875 -1.28125 2.90625 -1.28125q1.796875 0 2.96875 1.578125l0 -1.359375l2.390625 0l0 8.671875q0 1.71875 -0.28125 2.5625q-0.28125 0.84375 -0.796875 1.328125q-0.5 0.484375 -1.359375 0.75q-0.84375 0.28125 -2.15625 0.28125q-2.453125 0 -3.484375 -0.84375q-1.03125 -0.84375 -1.03125 -2.125q0 -0.140625 0.015625 -0.3125zm2.28125 -5.671875q0 1.53125 0.59375 2.25q0.59375 0.71875 1.46875 0.71875q0.9375 0 1.578125 -0.734375q0.65625 -0.734375 0.65625 -2.171875q0 -1.515625 -0.625 -2.234375q-0.609375 -0.734375 -1.5625 -0.734375q-0.921875 0 -1.515625 0.71875q-0.59375 0.71875 -0.59375 2.1875zm9.349091 -5.953125l0 -2.375l2.5625 0l0 2.375l-2.5625 0zm0 10.984375l0 -9.671875l2.5625 0l0 9.671875l-2.5625 0zm13.980194 0l-2.5625 0l0 -4.9375q0 -1.5625 -0.171875 -2.015625q-0.15625 -0.46875 -0.53125 -0.71875q-0.359375 -0.265625 -0.875 -0.265625q-0.671875 0 -1.203125 0.375q-0.53125 0.359375 -0.734375 0.96875q-0.1875 0.59375 -0.1875 2.21875l0 4.375l-2.546875 0l0 -9.671875l2.375 0l0 1.421875q1.265625 -1.640625 3.1875 -1.640625q0.84375 0 1.546875 0.3125q0.703125 0.296875 1.0625 0.78125q0.359375 0.46875 0.5 1.078125q0.140625 0.59375 0.140625 1.703125l0 6.015625zm2.3647156 0.640625l2.921875 0.359375q0.0625 0.5 0.328125 0.6875q0.375 0.28125 1.15625 0.28125q1.0 0 1.5 -0.296875q0.328125 -0.203125 0.515625 -0.65625q0.109375 -0.3125 0.109375 -1.171875l0 -1.40625q-1.140625 1.5625 -2.890625 1.5625q-1.953125 0 -3.09375 -1.65625q-0.890625 -1.296875 -0.890625 -3.234375q0 -2.4375 1.171875 -3.71875q1.171875 -1.28125 2.90625 -1.28125q1.796875 0 2.96875 1.578125l0 -1.359375l2.390625 0l0 8.671875q0 1.71875 -0.28125 2.5625q-0.28125 0.84375 -0.796875 1.328125q-0.5 0.484375 -1.359375 0.75q-0.84375 0.28125 -2.15625 0.28125q-2.453125 0 -3.484375 -0.84375q-1.03125 -0.84375 -1.03125 -2.125q0 -0.140625 0.015625 -0.3125zm2.28125 -5.671875q0 1.53125 0.59375 2.25q0.59375 0.71875 1.46875 0.71875q0.9375 0 1.578125 -0.734375q0.65625 -0.734375 0.65625 -2.171875q0 -1.515625 -0.625 -2.234375q-0.609375 -0.734375 -1.5625 -0.734375q-0.921875 0 -1.515625 0.71875q-0.59375 0.71875 -0.59375 2.1875zm25.902222 5.03125l-2.9375 0l-1.171875 -3.03125l-5.328125 0l-1.109375 3.03125l-2.859375 0l5.203125 -13.359375l2.84375 0l5.359375 13.359375zm-4.96875 -5.28125l-1.84375 -4.953125l-1.796875 4.953125l3.640625 0zm6.394806 5.28125l0 -13.359375l4.328125 0q2.453125 0 3.203125 0.203125q1.140625 0.296875 1.921875 1.3125q0.78125 1.0 0.78125 2.59375q0 1.234375 -0.453125 2.078125q-0.453125 0.828125 -1.140625 1.3125q-0.6875 0.46875 -1.390625 0.625q-0.96875 0.203125 -2.796875 0.203125l-1.765625 0l0 5.03125l-2.6875 0zm2.6875 -11.09375l0 3.78125l1.484375 0q1.59375 0 2.125 -0.203125q0.546875 -0.203125 0.84375 -0.65625q0.3125 -0.453125 0.3125 -1.03125q0 -0.734375 -0.4375 -1.203125q-0.421875 -0.484375 -1.078125 -0.59375q-0.484375 -0.09375 -1.9375 -0.09375l-1.3125 0zm9.677948 11.09375l0 -13.359375l2.6875 0l0 13.359375l-2.6875 0z" fill-rule="nonzero"/><path fill="#f9cb9c" d="m281.93045 405.56982l0 0c0 -7.8683777 6.378601 -14.246979 14.247009 -14.246979l178.24615 0c3.778534 0 7.402313 1.5010071 10.074127 4.1728516c2.6718445 2.671814 4.1728516 6.2955933 4.1728516 10.074127l0 56.98633c0 7.868408 -6.378601 14.247009 -14.246979 14.247009l-178.24615 0c-7.868408 0 -14.247009 -6.378601 -14.247009 -14.247009z" fill-rule="evenodd"/><path stroke="#b45f06" stroke-width="1.0" stroke-linejoin="round" stroke-linecap="butt" d="m281.93045 405.56982l0 0c0 -7.8683777 6.378601 -14.246979 14.247009 -14.246979l178.24615 0c3.778534 0 7.402313 1.5010071 10.074127 4.1728516c2.6718445 2.671814 4.1728516 6.2955933 4.1728516 10.074127l0 56.98633c0 7.868408 -6.378601 14.247009 -14.246979 14.247009l-178.24615 0c-7.868408 0 -14.247009 -6.378601 -14.247009 -14.247009z" fill-rule="evenodd"/><path fill="#000000" d="m303.5405 440.983l0 -13.359375l9.90625 0l0 2.265625l-7.21875 0l0 2.953125l6.71875 0l0 2.25l-6.71875 0l0 3.640625l7.46875 0l0 2.25l-10.15625 0zm12.224823 -9.671875l2.359375 0l0 1.3125q1.265625 -1.53125 3.015625 -1.53125q0.9375 0 1.609375 0.390625q0.6875 0.375 1.125 1.140625q0.640625 -0.765625 1.375 -1.140625q0.75 -0.390625 1.578125 -0.390625q1.0625 0 1.796875 0.4375q0.75 0.421875 1.109375 1.265625q0.265625 0.625 0.265625 2.0l0 6.1875l-2.5625 0l0 -5.53125q0 -1.4375 -0.265625 -1.859375q-0.34375 -0.546875 -1.09375 -0.546875q-0.53125 0 -1.015625 0.328125q-0.46875 0.328125 -0.671875 0.96875q-0.203125 0.625 -0.203125 2.0l0 4.640625l-2.5625 0l0 -5.296875q0 -1.421875 -0.140625 -1.828125q-0.140625 -0.40625 -0.421875 -0.609375q-0.28125 -0.203125 -0.78125 -0.203125q-0.59375 0 -1.0625 0.328125q-0.46875 0.3125 -0.6875 0.921875q-0.203125 0.59375 -0.203125 1.984375l0 4.703125l-2.5625 0l0 -9.671875zm16.682129 9.671875l0 -13.359375l2.5625 0l0 4.8125q1.171875 -1.34375 2.796875 -1.34375q1.765625 0 2.921875 1.28125q1.15625 1.28125 1.15625 3.671875q0 2.484375 -1.1875 3.828125q-1.171875 1.328125 -2.859375 1.328125q-0.828125 0 -1.640625 -0.40625q-0.796875 -0.421875 -1.375 -1.234375l0 1.421875l-2.375 0zm2.53125 -5.046875q0 1.5 0.484375 2.21875q0.65625 1.03125 1.765625 1.03125q0.84375 0 1.4375 -0.71875q0.59375 -0.734375 0.59375 -2.296875q0 -1.65625 -0.609375 -2.390625q-0.59375 -0.734375 -1.53125 -0.734375q-0.921875 0 -1.53125 0.71875q-0.609375 0.71875 -0.609375 2.171875zm14.567871 1.96875l2.546875 0.421875q-0.484375 1.40625 -1.546875 2.140625q-1.0625 0.734375 -2.65625 0.734375q-2.515625 0 -3.734375 -1.65625q-0.953125 -1.3125 -0.953125 -3.328125q0 -2.40625 1.25 -3.765625q1.265625 -1.359375 3.1875 -1.359375q2.15625 0 3.40625 1.421875q1.25 1.421875 1.1875 4.375l-6.40625 0q0.03125 1.140625 0.609375 1.78125q0.59375 0.625 1.484375 0.625q0.59375 0 1.0 -0.328125q0.421875 -0.328125 0.625 -1.0625zm0.15625 -2.59375q-0.03125 -1.109375 -0.578125 -1.6875q-0.546875 -0.578125 -1.328125 -0.578125q-0.84375 0 -1.390625 0.609375q-0.546875 0.609375 -0.53125 1.65625l3.828125 0zm7.281952 5.671875l-3.90625 -9.671875l2.6875 0l1.828125 4.9375l0.53125 1.640625q0.203125 -0.625 0.265625 -0.828125q0.125 -0.40625 0.265625 -0.8125l1.84375 -4.9375l2.625 0l-3.84375 9.671875l-2.296875 0zm13.313232 -3.078125l2.546875 0.421875q-0.484375 1.40625 -1.546875 2.140625q-1.0625 0.734375 -2.65625 0.734375q-2.515625 0 -3.734375 -1.65625q-0.953125 -1.3125 -0.953125 -3.328125q0 -2.40625 1.25 -3.765625q1.265625 -1.359375 3.1875 -1.359375q2.15625 0 3.40625 1.421875q1.25 1.421875 1.1875 4.375l-6.40625 0q0.03125 1.140625 0.609375 1.78125q0.59375 0.625 1.484375 0.625q0.59375 0 1.0 -0.328125q0.421875 -0.328125 0.625 -1.0625zm0.15625 -2.59375q-0.03125 -1.109375 -0.578125 -1.6875q-0.546875 -0.578125 -1.328125 -0.578125q-0.84375 0 -1.390625 0.609375q-0.546875 0.609375 -0.53125 1.65625l3.828125 0zm7.078827 5.671875l-2.5625 0l0 -9.671875l2.375 0l0 1.375q0.609375 -0.984375 1.09375 -1.28125q0.484375 -0.3125 1.109375 -0.3125q0.875 0 1.6875 0.484375l-0.796875 2.234375q-0.640625 -0.421875 -1.203125 -0.421875q-0.53125 0 -0.90625 0.296875q-0.375 0.296875 -0.59375 1.078125q-0.203125 0.765625 -0.203125 3.234375l0 2.984375zm16.209198 -4.90625l0 -2.25l5.8125 0l0 5.3125q-0.84375 0.828125 -2.453125 1.453125q-1.609375 0.625 -3.25 0.625q-2.09375 0 -3.65625 -0.875q-1.5625 -0.890625 -2.34375 -2.515625q-0.78125 -1.640625 -0.78125 -3.5625q0 -2.09375 0.875 -3.703125q0.875 -1.625 2.5625 -2.5q1.28125 -0.65625 3.203125 -0.65625q2.484375 0 3.875 1.046875q1.40625 1.03125 1.796875 2.875l-2.671875 0.5q-0.28125 -0.984375 -1.0625 -1.546875q-0.78125 -0.578125 -1.9375 -0.578125q-1.78125 0 -2.828125 1.125q-1.03125 1.125 -1.03125 3.328125q0 2.375 1.046875 3.5625q1.0625 1.1875 2.78125 1.1875q0.84375 0 1.6875 -0.328125q0.859375 -0.328125 1.46875 -0.8125l0 -1.6875l-3.09375 0zm8.308319 4.90625l0 -13.359375l4.328125 0q2.453125 0 3.203125 0.203125q1.140625 0.296875 1.921875 1.3125q0.78125 1.0 0.78125 2.59375q0 1.234375 -0.453125 2.078125q-0.453125 0.828125 -1.140625 1.3125q-0.6875 0.46875 -1.390625 0.625q-0.96875 0.203125 -2.796875 0.203125l-1.765625 0l0 5.03125l-2.6875 0zm2.6875 -11.09375l0 3.78125l1.484375 0q1.59375 0 2.125 -0.203125q0.546875 -0.203125 0.84375 -0.65625q0.3125 -0.453125 0.3125 -1.03125q0 -0.734375 -0.4375 -1.203125q-0.421875 -0.484375 -1.078125 -0.59375q-0.484375 -0.09375 -1.9375 -0.09375l-1.3125 0zm9.6779175 11.09375l0 -13.359375l2.6875 0l0 13.359375l-2.6875 0zm4.714569 -6.59375q0 -2.046875 0.609375 -3.421875q0.453125 -1.03125 1.234375 -1.828125q0.796875 -0.8125 1.734375 -1.203125q1.25 -0.53125 2.875 -0.53125q2.953125 0 4.71875 1.828125q1.78125 1.828125 1.78125 5.09375q0 3.234375 -1.765625 5.0625q-1.75 1.828125 -4.6875 1.828125q-2.984375 0 -4.75 -1.8125q-1.75 -1.828125 -1.75 -5.015625zm2.78125 -0.09375q0 2.265625 1.046875 3.4375q1.046875 1.171875 2.65625 1.171875q1.609375 0 2.640625 -1.15625q1.046875 -1.171875 1.046875 -3.484375q0 -2.296875 -1.015625 -3.421875q-1.0 -1.140625 -2.671875 -1.140625q-1.671875 0 -2.6875 1.15625q-1.015625 1.140625 -1.015625 3.4375zm28.814514 6.6875l-2.9375 0l-1.171875 -3.03125l-5.328125 0l-1.109375 3.03125l-2.859375 0l5.203125 -13.359375l2.84375 0l5.359375 13.359375zm-4.96875 -5.28125l-1.84375 -4.953125l-1.796875 4.953125l3.640625 0zm6.3948364 5.28125l0 -13.359375l4.328125 0q2.453125 0 3.203125 0.203125q1.140625 0.296875 1.921875 1.3125q0.78125 1.0 0.78125 2.59375q0 1.234375 -0.453125 2.078125q-0.453125 0.828125 -1.140625 1.3125q-0.6875 0.46875 -1.390625 0.625q-0.96875 0.203125 -2.796875 0.203125l-1.765625 0l0 5.03125l-2.6875 0zm2.6875 -11.09375l0 3.78125l1.484375 0q1.59375 0 2.125 -0.203125q0.546875 -0.203125 0.84375 -0.65625q0.3125 -0.453125 0.3125 -1.03125q0 -0.734375 -0.4375 -1.203125q-0.421875 -0.484375 -1.078125 -0.59375q-0.484375 -0.09375 -1.9375 -0.09375l-1.3125 0zm9.677948 11.09375l0 -13.359375l2.6875 0l0 13.359375l-2.6875 0z" fill-rule="nonzero"/><path fill="#000000" fill-opacity="0.0" d="m15.433071 328.96326l505.5118 0l0 42.015747l-505.5118 0z" fill-rule="evenodd"/><path fill="#000000" d="m193.79309 355.88324l0 -13.359375l2.6875 0l0 13.359375l-2.6875 0zm14.042679 0l-2.5625 0l0 -4.9375q0 -1.5625 -0.171875 -2.015625q-0.15625 -0.46875 -0.53125 -0.71875q-0.359375 -0.265625 -0.875 -0.265625q-0.671875 0 -1.203125 0.375q-0.53125 0.359375 -0.734375 0.96875q-0.1875 0.59375 -0.1875 2.21875l0 4.375l-2.546875 0l0 -9.671875l2.375 0l0 1.421875q1.265625 -1.640625 3.1875 -1.640625q0.84375 0 1.546875 0.3125q0.703125 0.296875 1.0625 0.78125q0.359375 0.46875 0.5 1.078125q0.140625 0.59375 0.140625 1.703125l0 6.015625zm7.036606 -9.671875l0 2.03125l-1.75 0l0 3.90625q0 1.1875 0.046875 1.390625q0.046875 0.1875 0.21875 0.3125q0.1875 0.125 0.4375 0.125q0.359375 0 1.03125 -0.25l0.21875 2.0q-0.890625 0.375 -2.015625 0.375q-0.703125 0 -1.265625 -0.234375q-0.546875 -0.234375 -0.8125 -0.59375q-0.25 -0.375 -0.34375 -1.0q-0.09375 -0.453125 -0.09375 -1.8125l0 -4.21875l-1.171875 0l0 -2.03125l1.171875 0l0 -1.921875l2.578125 -1.5l0 3.421875l1.75 0zm7.368927 6.59375l2.546875 0.421875q-0.484375 1.40625 -1.546875 2.140625q-1.0625 0.734375 -2.65625 0.734375q-2.515625 0 -3.734375 -1.65625q-0.953125 -1.3125 -0.953125 -3.328125q0 -2.40625 1.25 -3.765625q1.265625 -1.359375 3.1875 -1.359375q2.15625 0 3.40625 1.421875q1.25 1.421875 1.1875 4.375l-6.40625 0q0.03125 1.140625 0.609375 1.78125q0.59375 0.625 1.484375 0.625q0.59375 0 1.0 -0.328125q0.421875 -0.328125 0.625 -1.0625zm0.15625 -2.59375q-0.03125 -1.109375 -0.578125 -1.6875q-0.546875 -0.578125 -1.328125 -0.578125q-0.84375 0 -1.390625 0.609375q-0.546875 0.609375 -0.53125 1.65625l3.828125 0zm4.391342 6.3125l2.921875 0.359375q0.0625 0.5 0.328125 0.6875q0.375 0.28125 1.15625 0.28125q1.0 0 1.5 -0.296875q0.328125 -0.203125 0.515625 -0.65625q0.109375 -0.3125 0.109375 -1.171875l0 -1.40625q-1.140625 1.5625 -2.890625 1.5625q-1.953125 0 -3.09375 -1.65625q-0.890625 -1.296875 -0.890625 -3.234375q0 -2.4375 1.171875 -3.71875q1.171875 -1.28125 2.90625 -1.28125q1.796875 0 2.96875 1.578125l0 -1.359375l2.390625 0l0 8.671875q0 1.71875 -0.28125 2.5625q-0.28125 0.84375 -0.796875 1.328125q-0.5 0.484375 -1.359375 0.75q-0.84375 0.28125 -2.15625 0.28125q-2.453125 0 -3.484375 -0.84375q-1.03125 -0.84375 -1.03125 -2.125q0 -0.140625 0.015625 -0.3125zm2.28125 -5.671875q0 1.53125 0.59375 2.25q0.59375 0.71875 1.46875 0.71875q0.9375 0 1.578125 -0.734375q0.65625 -0.734375 0.65625 -2.171875q0 -1.515625 -0.625 -2.234375q-0.609375 -0.734375 -1.5625 -0.734375q-0.921875 0 -1.515625 0.71875q-0.59375 0.71875 -0.59375 2.1875zm11.802231 5.03125l-2.5625 0l0 -9.671875l2.375 0l0 1.375q0.609375 -0.984375 1.09375 -1.28125q0.484375 -0.3125 1.109375 -0.3125q0.875 0 1.6875 0.484375l-0.796875 2.234375q-0.640625 -0.421875 -1.203125 -0.421875q-0.53125 0 -0.90625 0.296875q-0.375 0.296875 -0.59375 1.078125q-0.203125 0.765625 -0.203125 3.234375l0 2.984375zm6.713394 -6.71875l-2.328125 -0.421875q0.40625 -1.40625 1.359375 -2.078125q0.953125 -0.671875 2.84375 -0.671875q1.703125 0 2.546875 0.40625q0.84375 0.40625 1.171875 1.03125q0.34375 0.625 0.34375 2.28125l-0.015625 3.0q0 1.265625 0.109375 1.875q0.125 0.609375 0.46875 1.296875l-2.53125 0q-0.109375 -0.25 -0.25 -0.75q-0.0625 -0.234375 -0.09375 -0.3125q-0.65625 0.640625 -1.40625 0.96875q-0.734375 0.3125 -1.59375 0.3125q-1.484375 0 -2.34375 -0.8125q-0.859375 -0.8125 -0.859375 -2.046875q0 -0.828125 0.390625 -1.46875q0.390625 -0.640625 1.09375 -0.96875q0.703125 -0.34375 2.03125 -0.609375q1.796875 -0.328125 2.484375 -0.625l0 -0.25q0 -0.75 -0.359375 -1.0625q-0.359375 -0.3125 -1.375 -0.3125q-0.6875 0 -1.078125 0.28125q-0.375 0.265625 -0.609375 0.9375zm3.421875 2.078125q-0.484375 0.15625 -1.5625 0.390625q-1.0625 0.21875 -1.390625 0.4375q-0.5 0.359375 -0.5 0.90625q0 0.53125 0.40625 0.9375q0.40625 0.390625 1.015625 0.390625q0.703125 0 1.328125 -0.46875q0.46875 -0.34375 0.609375 -0.84375q0.09375 -0.328125 0.09375 -1.25l0 -0.5zm9.485092 -5.03125l0 2.03125l-1.75 0l0 3.90625q0 1.1875 0.046875 1.390625q0.046875 0.1875 0.21875 0.3125q0.1875 0.125 0.4375 0.125q0.359375 0 1.03125 -0.25l0.21875 2.0q-0.890625 0.375 -2.015625 0.375q-0.703125 0 -1.265625 -0.234375q-0.546875 -0.234375 -0.8125 -0.59375q-0.25 -0.375 -0.34375 -1.0q-0.09375 -0.453125 -0.09375 -1.8125l0 -4.21875l-1.171875 0l0 -2.03125l1.171875 0l0 -1.921875l2.578125 -1.5l0 3.421875l1.75 0zm1.775177 -1.3125l0 -2.375l2.5625 0l0 2.375l-2.5625 0zm0 10.984375l0 -9.671875l2.5625 0l0 9.671875l-2.5625 0zm4.5895386 -4.96875q0 -1.28125 0.625 -2.46875q0.625 -1.203125 1.78125 -1.828125q1.15625 -0.625 2.578125 -0.625q2.1875 0 3.59375 1.421875q1.40625 1.421875 1.40625 3.609375q0 2.1875 -1.421875 3.640625q-1.421875 1.4375 -3.5625 1.4375q-1.328125 0 -2.546875 -0.59375q-1.203125 -0.609375 -1.828125 -1.765625q-0.625 -1.171875 -0.625 -2.828125zm2.625 0.125q0 1.453125 0.671875 2.21875q0.6875 0.75 1.6875 0.75q1.0 0 1.671875 -0.75q0.6875 -0.765625 0.6875 -2.234375q0 -1.421875 -0.6875 -2.1875q-0.671875 -0.765625 -1.671875 -0.765625q-1.0 0 -1.6875 0.765625q-0.671875 0.765625 -0.671875 2.203125zm18.161621 4.84375l-2.5625 0l0 -4.9375q0 -1.5625 -0.171875 -2.015625q-0.15625 -0.46875 -0.53125 -0.71875q-0.359375 -0.265625 -0.875 -0.265625q-0.671875 0 -1.203125 0.375q-0.53125 0.359375 -0.734375 0.96875q-0.1875 0.59375 -0.1875 2.21875l0 4.375l-2.546875 0l0 -9.671875l2.375 0l0 1.421875q1.265625 -1.640625 3.1875 -1.640625q0.84375 0 1.546875 0.3125q0.703125 0.296875 1.0625 0.78125q0.359375 0.46875 0.5 1.078125q0.140625 0.59375 0.140625 1.703125l0 6.015625zm7.8761597 0l0 -13.25l2.6875 0l0 11.0l6.703125 0l0 2.25l-9.390625 0zm13.208496 -6.71875l-2.328125 -0.421875q0.40625 -1.40625 1.359375 -2.078125q0.953125 -0.671875 2.84375 -0.671875q1.703125 0 2.546875 0.40625q0.84375 0.40625 1.171875 1.03125q0.34375 0.625 0.34375 2.28125l-0.015625 3.0q0 1.265625 0.109375 1.875q0.125 0.609375 0.46875 1.296875l-2.53125 0q-0.109375 -0.25 -0.25 -0.75q-0.0625 -0.234375 -0.09375 -0.3125q-0.65625 0.640625 -1.40625 0.96875q-0.734375 0.3125 -1.59375 0.3125q-1.484375 0 -2.34375 -0.8125q-0.859375 -0.8125 -0.859375 -2.046875q0 -0.828125 0.390625 -1.46875q0.390625 -0.640625 1.09375 -0.96875q0.703125 -0.34375 2.03125 -0.609375q1.796875 -0.328125 2.484375 -0.625l0 -0.25q0 -0.75 -0.359375 -1.0625q-0.359375 -0.3125 -1.375 -0.3125q-0.6875 0 -1.078125 0.28125q-0.375 0.265625 -0.609375 0.9375zm3.421875 2.078125q-0.484375 0.15625 -1.5625 0.390625q-1.0625 0.21875 -1.390625 0.4375q-0.5 0.359375 -0.5 0.90625q0 0.53125 0.40625 0.9375q0.40625 0.390625 1.015625 0.390625q0.703125 0 1.328125 -0.46875q0.46875 -0.34375 0.609375 -0.84375q0.09375 -0.328125 0.09375 -1.25l0 -0.5zm3.828827 -5.03125l2.71875 0l2.328125 6.859375l2.25 -6.859375l2.65625 0l-3.421875 9.3125l-0.609375 1.6875q-0.328125 0.84375 -0.640625 1.28125q-0.3125 0.453125 -0.703125 0.71875q-0.390625 0.28125 -0.96875 0.4375q-0.578125 0.15625 -1.3125 0.15625q-0.734375 0 -1.453125 -0.15625l-0.21875 -2.0q0.59375 0.125 1.078125 0.125q0.890625 0 1.3125 -0.53125q0.4375 -0.515625 0.671875 -1.328125l-3.6875 -9.703125zm17.188202 6.59375l2.546875 0.421875q-0.484375 1.40625 -1.546875 2.140625q-1.0625 0.734375 -2.65625 0.734375q-2.515625 0 -3.734375 -1.65625q-0.953125 -1.3125 -0.953125 -3.328125q0 -2.40625 1.25 -3.765625q1.265625 -1.359375 3.1875 -1.359375q2.15625 0 3.40625 1.421875q1.25 1.421875 1.1875 4.375l-6.40625 0q0.03125 1.140625 0.609375 1.78125q0.59375 0.625 1.484375 0.625q0.59375 0 1.0 -0.328125q0.421875 -0.328125 0.625 -1.0625zm0.15625 -2.59375q-0.03125 -1.109375 -0.578125 -1.6875q-0.546875 -0.578125 -1.328125 -0.578125q-0.84375 0 -1.390625 0.609375q-0.546875 0.609375 -0.53125 1.65625l3.828125 0zm7.0788574 5.671875l-2.5625 0l0 -9.671875l2.375 0l0 1.375q0.609375 -0.984375 1.09375 -1.28125q0.484375 -0.3125 1.109375 -0.3125q0.875 0 1.6875 0.484375l-0.796875 2.234375q-0.640625 -0.421875 -1.203125 -0.421875q-0.53125 0 -0.90625 0.296875q-0.375 0.296875 -0.59375 1.078125q-0.203125 0.765625 -0.203125 3.234375l0 2.984375z" fill-rule="nonzero"/><path fill="#9fc5e8" d="m282.78217 529.1788l0 0c0 -7.868408 6.378601 -14.247009 14.246979 -14.247009l178.24615 0c3.778534 0 7.402313 1.5010376 10.074158 4.1728516c2.6718445 2.671814 4.1728516 6.2955933 4.1728516 10.074158l0 56.986267c0 7.868408 -6.378601 14.247009 -14.247009 14.247009l-178.24615 0c-7.8683777 0 -14.246979 -6.378601 -14.246979 -14.247009z" fill-rule="evenodd"/><path stroke="#1155cc" stroke-width="1.0" stroke-linejoin="round" stroke-linecap="butt" d="m282.78217 529.1788l0 0c0 -7.868408 6.378601 -14.247009 14.246979 -14.247009l178.24615 0c3.778534 0 7.402313 1.5010376 10.074158 4.1728516c2.6718445 2.671814 4.1728516 6.2955933 4.1728516 10.074158l0 56.986267c0 7.868408 -6.378601 14.247009 -14.247009 14.247009l-178.24615 0c-7.8683777 0 -14.246979 -6.378601 -14.246979 -14.247009z" fill-rule="evenodd"/><path fill="#000000" d="m370.38986 548.68567l0 -2.25l5.8125 0l0 5.3125q-0.84375 0.828125 -2.453125 1.453125q-1.609375 0.625 -3.25 0.625q-2.09375 0 -3.65625 -0.875q-1.5625 -0.890625 -2.34375 -2.515625q-0.78125 -1.640625 -0.78125 -3.5625q0 -2.09375 0.875 -3.703125q0.875 -1.625 2.5625 -2.5q1.28125 -0.65625 3.203125 -0.65625q2.484375 0 3.875 1.046875q1.40625 1.03125 1.796875 2.875l-2.671875 0.5q-0.28125 -0.984375 -1.0625 -1.546875q-0.78125 -0.578125 -1.9375 -0.578125q-1.78125 0 -2.828125 1.125q-1.03125 1.125 -1.03125 3.328125q0 2.375 1.046875 3.5625q1.0625 1.1875 2.78125 1.1875q0.84375 0 1.6875 -0.328125q0.859375 -0.328125 1.46875 -0.8125l0 -1.6875l-3.09375 0zm8.308319 4.90625l0 -13.359375l4.328125 0q2.453125 0 3.203125 0.203125q1.140625 0.296875 1.921875 1.3125q0.78125 1.0 0.78125 2.59375q0 1.234375 -0.453125 2.078125q-0.453125 0.828125 -1.140625 1.3125q-0.6875 0.46875 -1.390625 0.625q-0.96875 0.203125 -2.796875 0.203125l-1.765625 0l0 5.03125l-2.6875 0zm2.6875 -11.09375l0 3.78125l1.484375 0q1.59375 0 2.125 -0.203125q0.546875 -0.203125 0.84375 -0.65625q0.3125 -0.453125 0.3125 -1.03125q0 -0.734375 -0.4375 -1.203125q-0.421875 -0.484375 -1.078125 -0.59375q-0.484375 -0.09375 -1.9375 -0.09375l-1.3125 0zm9.677948 11.09375l0 -13.359375l2.6875 0l0 13.359375l-2.6875 0zm4.7145386 -6.59375q0 -2.046875 0.609375 -3.421875q0.453125 -1.03125 1.234375 -1.828125q0.796875 -0.8125 1.734375 -1.203125q1.25 -0.53125 2.875 -0.53125q2.953125 0 4.71875 1.828125q1.78125 1.828125 1.78125 5.09375q0 3.234375 -1.765625 5.0625q-1.75 1.828125 -4.6875 1.828125q-2.984375 0 -4.75 -1.8125q-1.75 -1.828125 -1.75 -5.015625zm2.78125 -0.09375q0 2.265625 1.046875 3.4375q1.046875 1.171875 2.65625 1.171875q1.609375 0 2.640625 -1.15625q1.046875 -1.171875 1.046875 -3.484375q0 -2.296875 -1.015625 -3.421875q-1.0 -1.140625 -2.671875 -1.140625q-1.671875 0 -2.6875 1.15625q-1.015625 1.140625 -1.015625 3.4375z" fill-rule="nonzero"/><path fill="#000000" d="m360.53186 562.23254l4.9375 0q1.65625 0 2.53125 0.265625q1.1875 0.34375 2.015625 1.234375q0.84375 0.875 1.28125 2.15625q0.4375 1.28125 0.4375 3.15625q0 1.640625 -0.40625 2.84375q-0.5 1.453125 -1.4375 2.359375q-0.703125 0.671875 -1.890625 1.0625q-0.890625 0.28125 -2.390625 0.28125l-5.078125 0l0 -13.359375zm2.703125 2.265625l0 8.84375l2.015625 0q1.125 0 1.625 -0.125q0.65625 -0.171875 1.078125 -0.5625q0.4375 -0.390625 0.703125 -1.28125q0.28125 -0.90625 0.28125 -2.453125q0 -1.546875 -0.28125 -2.375q-0.265625 -0.828125 -0.765625 -1.28125q-0.484375 -0.46875 -1.234375 -0.640625q-0.5625 -0.125 -2.21875 -0.125l-1.203125 0zm13.222961 11.09375l-2.5625 0l0 -9.671875l2.375 0l0 1.375q0.609375 -0.984375 1.09375 -1.28125q0.484375 -0.3125 1.109375 -0.3125q0.875 0 1.6875 0.484375l-0.796875 2.234375q-0.640625 -0.421875 -1.203125 -0.421875q-0.53125 0 -0.90625 0.296875q-0.375 0.296875 -0.59375 1.078125q-0.203125 0.765625 -0.203125 3.234375l0 2.984375zm4.807129 -10.984375l0 -2.375l2.5625 0l0 2.375l-2.5625 0zm0 10.984375l0 -9.671875l2.5625 0l0 9.671875l-2.5625 0zm7.839569 0l-3.90625 -9.671875l2.6875 0l1.828125 4.9375l0.53125 1.640625q0.203125 -0.625 0.265625 -0.828125q0.125 -0.40625 0.265625 -0.8125l1.84375 -4.9375l2.625 0l-3.84375 9.671875l-2.296875 0zm13.313202 -3.078125l2.546875 0.421875q-0.484375 1.40625 -1.546875 2.140625q-1.0625 0.734375 -2.65625 0.734375q-2.515625 0 -3.734375 -1.65625q-0.953125 -1.3125 -0.953125 -3.328125q0 -2.40625 1.25 -3.765625q1.265625 -1.359375 3.1875 -1.359375q2.15625 0 3.40625 1.421875q1.25 1.421875 1.1875 4.375l-6.40625 0q0.03125 1.140625 0.609375 1.78125q0.59375 0.625 1.484375 0.625q0.59375 0 1.0 -0.328125q0.421875 -0.328125 0.625 -1.0625zm0.15625 -2.59375q-0.03125 -1.109375 -0.578125 -1.6875q-0.546875 -0.578125 -1.328125 -0.578125q-0.84375 0 -1.390625 0.609375q-0.546875 0.609375 -0.53125 1.65625l3.828125 0zm7.0788574 5.671875l-2.5625 0l0 -9.671875l2.375 0l0 1.375q0.609375 -0.984375 1.09375 -1.28125q0.484375 -0.3125 1.109375 -0.3125q0.875 0 1.6875 0.484375l-0.796875 2.234375q-0.640625 -0.421875 -1.203125 -0.421875q-0.53125 0 -0.90625 0.296875q-0.375 0.296875 -0.59375 1.078125q-0.203125 0.765625 -0.203125 3.234375l0 2.984375z" fill-rule="nonzero"/></g></svg>